<svg xmlns="http://www.w3.org/2000/svg" id="canvas" viewBox="219.845 302.856 1010.601 134.659">
    <style>
    path {
      stroke-dasharray: 2000;
      stroke-dashoffset: 2000;
      -webkit-animation: dash 5s ease 1 forwards;
      animation: dash 5s ease 1 forwards;
    }
    
    @-webkit-keyframes dash {
      to {
        stroke-dashoffset: 0;
      }
    }
    @keyframes dash {
      to {
        stroke-dashoffset: 0;
      }
    }
  </style>
  <g>
    <path stroke-linecap="null" stroke-linejoin="null" stroke-dasharray="null" stroke-width="5" stroke="#000000" fill="none" d="M 235.53,306.53 C 235.21 307.41, 235.19 308.40, 235.05 310.84 C 234.90 313.27, 234.87 314.89, 234.79 318.70 C 234.71 322.51, 234.77 324.99, 234.65 329.88 C 234.53 334.78, 234.57 337.76, 234.18 343.17 C 233.79 348.58, 233.34 351.44, 232.71 356.94 C 232.07 362.43, 231.84 365.36, 231.01 370.65 C 230.18 375.93, 229.58 378.69, 228.54 383.37 C 227.50 388.04, 226.77 390.19, 225.83 394.03 C 224.88 397.87, 224.39 399.59, 223.83 402.57 C 223.28 405.54, 223.22 406.95, 223.07 408.91 C 222.91 410.88, 222.95 411.37, 223.07 412.40 C 223.20 413.42, 223.44 413.74, 223.69 414.05 C 223.93 414.37, 224.13 414.29, 224.29 413.97 C 224.45 413.65, 224.29 413.41, 224.49 412.45 C 224.69 411.49, 224.95 411.09, 225.29 409.19 C 225.62 407.30, 225.68 405.92, 226.16 402.97 C 226.63 400.02, 226.87 398.30, 227.67 394.45 C 228.47 390.60, 229.19 388.43, 230.16 383.71 C 231.13 379.00, 231.72 376.20, 232.53 370.88 C 233.34 365.56, 233.57 362.63, 234.23 357.12 C 234.89 351.60, 235.36 348.73, 235.84 343.30 C 236.32 337.87, 236.35 334.87, 236.63 329.96 C 236.90 325.06, 237.04 322.60, 237.22 318.78 C 237.41 314.96, 237.68 313.31, 237.57 310.85 C 237.45 308.39, 237.06 307.34, 236.65 306.48 C 236.24 305.62, 235.85 305.66, 235.53 306.53" />
    <path stroke-linecap="null" stroke-linejoin="null" stroke-dasharray="null" stroke-width="5" stroke="#000000" fill="none" d="M 260.27,308.31 C 259.99 309.17, 259.84 309.99, 259.92 312.52 C 259.99 315.06, 260.37 316.81, 260.66 320.97 C 260.95 325.13, 261.14 327.95, 261.37 333.33 C 261.59 338.71, 261.73 341.97, 261.79 347.86 C 261.85 353.75, 261.86 357.12, 261.66 362.78 C 261.45 368.44, 261.30 371.22, 260.76 376.15 C 260.22 381.08, 259.66 383.65, 258.95 387.43 C 258.25 391.20, 257.75 392.71, 257.24 395.03 C 256.73 397.34, 256.43 398.16, 256.40 399.00 C 256.37 399.85, 256.58 399.95, 257.11 399.25 C 257.63 398.56, 258.28 397.81, 259.03 395.52 C 259.78 393.22, 260.19 391.61, 260.85 387.77 C 261.52 383.93, 261.90 381.30, 262.36 376.31 C 262.82 371.32, 262.96 368.53, 263.16 362.83 C 263.36 357.14, 263.35 353.76, 263.36 347.85 C 263.37 341.94, 263.28 338.68, 263.20 333.28 C 263.12 327.88, 263.11 325.04, 262.94 320.85 C 262.78 316.66, 262.71 314.85, 262.39 312.33 C 262.06 309.80, 261.75 309.03, 261.33 308.22 C 260.91 307.42, 260.56 307.45, 260.27 308.31" />
    <path stroke-linecap="null" stroke-linejoin="null" stroke-dasharray="null" stroke-width="5" stroke="#000000" fill="none" d="M 223.63,380.35 C 224.62 380.60, 225.99 380.63, 228.42 380.39 C 230.85 380.15, 232.52 379.92, 235.78 379.15 C 239.04 378.38, 243.03 377.42, 244.74 376.53 C 246.44 375.64, 246.25 374.79, 244.33 374.71 C 242.41 374.63, 238.42 375.53, 235.14 376.15 C 231.87 376.76, 230.30 377.17, 227.96 377.78 C 225.62 378.38, 224.32 378.65, 223.46 379.16 C 222.59 379.68, 222.64 380.10, 223.63 380.35" />
    <path stroke-linecap="null" stroke-linejoin="null" stroke-dasharray="null" stroke-width="5" stroke="#000000" fill="none" d="M 273.54,382.09 C 274.29 382.46, 275.43 382.89, 277.30 382.73 C 279.17 382.57, 280.42 382.36, 282.89 381.30 C 285.36 380.24, 287.07 379.33, 289.66 377.43 C 292.24 375.53, 293.57 374.13, 295.80 371.79 C 298.03 369.46, 299.40 368.10, 300.82 365.75 C 302.25 363.40, 302.72 362.04, 302.91 360.03 C 303.11 358.02, 302.89 356.91, 301.80 355.70 C 300.72 354.49, 299.65 353.86, 297.49 353.97 C 295.32 354.08, 293.56 354.57, 290.98 356.24 C 288.40 357.90, 286.86 359.46, 284.59 362.31 C 282.31 365.16, 281.13 367.14, 279.61 370.50 C 278.09 373.86, 277.21 375.96, 276.99 379.11 C 276.76 382.27, 277.17 383.97, 278.47 386.28 C 279.76 388.60, 281.02 389.62, 283.46 390.70 C 285.90 391.78, 287.53 391.95, 290.67 391.69 C 293.80 391.44, 295.67 390.85, 299.13 389.44 C 302.60 388.03, 304.48 387.03, 308.00 384.66 C 311.52 382.28, 313.37 380.90, 316.73 377.57 C 320.09 374.23, 321.77 372.09, 324.78 367.98 C 327.80 363.87, 329.30 361.44, 331.80 357.00 C 334.29 352.56, 335.44 350.08, 337.26 345.78 C 339.07 341.48, 339.89 339.14, 340.87 335.50 C 341.85 331.87, 342.29 330.17, 342.16 327.60 C 342.04 325.04, 341.50 323.94, 340.26 322.69 C 339.01 321.43, 337.94 321.05, 335.94 321.34 C 333.95 321.63, 332.39 322.11, 330.29 324.12 C 328.19 326.13, 327.17 327.84, 325.44 331.37 C 323.71 334.90, 322.81 337.31, 321.62 341.77 C 320.43 346.22, 319.82 348.86, 319.47 353.66 C 319.12 358.46, 319.19 361.37, 319.86 365.77 C 320.53 370.17, 321.14 372.36, 322.82 375.68 C 324.49 378.99, 325.66 380.43, 328.24 382.35 C 330.82 384.28, 332.49 384.94, 335.72 385.31 C 338.94 385.67, 340.84 385.35, 344.37 384.18 C 347.89 383.01, 349.77 381.99, 353.33 379.44 C 356.88 376.90, 358.65 375.21, 362.15 371.46 C 365.64 367.71, 367.48 365.33, 370.82 360.69 C 374.16 356.04, 375.88 353.24, 378.86 348.24 C 381.85 343.24, 383.32 340.49, 385.76 335.68 C 388.20 330.87, 389.35 328.30, 391.06 324.19 C 392.78 320.08, 393.61 318.15, 394.34 315.11 C 395.07 312.08, 395.18 310.81, 394.71 309.01 C 394.24 307.22, 393.58 306.50, 392.01 306.14 C 390.44 305.78, 389.13 305.75, 386.86 307.21 C 384.59 308.66, 383.34 310.05, 380.64 313.39 C 377.94 316.74, 376.27 319.11, 373.37 323.92 C 370.47 328.74, 368.68 331.90, 366.13 337.47 C 363.59 343.04, 362.27 346.40, 360.65 351.77 C 359.03 357.14, 358.40 359.87, 358.03 364.32 C 357.66 368.78, 357.81 370.83, 358.82 374.05 C 359.82 377.26, 360.77 378.58, 363.04 380.41 C 365.31 382.24, 367.00 382.81, 370.18 383.19 C 373.36 383.57, 375.23 383.23, 378.93 382.31 C 382.64 381.40, 384.79 380.45, 388.72 378.62 C 392.65 376.78, 394.86 375.48, 398.58 373.14 C 402.29 370.81, 404.47 369.24, 407.28 366.93 C 410.09 364.61, 411.43 363.15, 412.63 361.56 C 413.83 359.97, 413.66 359.15, 413.27 358.97 C 412.89 358.78, 411.98 359.14, 410.71 360.63 C 409.44 362.12, 408.13 363.67, 406.92 366.42 C 405.71 369.17, 404.96 371.41, 404.65 374.40 C 404.33 377.38, 404.52 379.10, 405.35 381.34 C 406.18 383.57, 407.00 384.52, 408.78 385.56 C 410.57 386.60, 411.90 386.83, 414.27 386.54 C 416.64 386.26, 418.10 385.66, 420.63 384.14 C 423.15 382.63, 424.55 381.35, 426.88 378.97 C 429.22 376.58, 430.43 375.06, 432.30 372.21 C 434.17 369.35, 435.25 367.61, 436.25 364.68 C 437.25 361.74, 437.50 360.07, 437.29 357.53 C 437.07 354.99, 436.47 353.69, 435.19 351.98 C 433.91 350.27, 432.76 349.70, 430.88 348.97 C 428.99 348.24, 427.56 348.26, 425.78 348.32 C 423.99 348.38, 423.09 348.85, 421.95 349.28 C 420.81 349.70, 420.41 350.04, 420.07 350.43 C 419.74 350.82, 419.82 351.05, 420.27 351.25 C 420.73 351.45, 421.24 351.43, 422.35 351.43 C 423.47 351.43, 424.30 351.26, 425.84 351.26 C 427.38 351.25, 428.54 350.99, 430.05 351.41 C 431.56 351.83, 432.44 352.09, 433.38 353.34 C 434.33 354.59, 434.73 355.59, 434.79 357.68 C 434.84 359.76, 434.59 361.15, 433.64 363.76 C 432.70 366.37, 431.81 368.09, 430.06 370.73 C 428.31 373.37, 427.10 374.81, 424.89 376.96 C 422.67 379.11, 421.19 380.07, 418.98 381.48 C 416.77 382.89, 415.66 383.56, 413.83 384.02 C 411.99 384.47, 411.03 384.44, 409.81 383.76 C 408.59 383.09, 408.05 382.41, 407.71 380.65 C 407.38 378.89, 407.60 377.51, 408.16 374.95 C 408.71 372.39, 409.56 370.48, 410.51 367.86 C 411.45 365.24, 412.29 363.62, 412.86 361.85 C 413.43 360.08, 413.71 359.34, 413.37 359.00 C 413.03 358.65, 412.69 358.92, 411.17 360.14 C 409.64 361.35, 408.50 362.82, 405.76 365.07 C 403.02 367.32, 401.03 369.05, 397.45 371.38 C 393.86 373.70, 391.65 374.96, 387.83 376.70 C 384.02 378.44, 381.88 379.27, 378.40 380.09 C 374.92 380.92, 373.25 381.11, 370.44 380.83 C 367.63 380.55, 366.32 380.19, 364.37 378.71 C 362.41 377.24, 361.61 376.31, 360.67 373.46 C 359.74 370.60, 359.42 368.70, 359.71 364.45 C 360.00 360.20, 360.55 357.48, 362.12 352.21 C 363.69 346.95, 365.00 343.59, 367.55 338.12 C 370.10 332.65, 371.92 329.51, 374.89 324.86 C 377.85 320.21, 379.69 317.96, 382.39 314.86 C 385.08 311.76, 386.49 310.82, 388.37 309.37 C 390.26 307.91, 390.86 307.60, 391.81 307.58 C 392.75 307.56, 393.02 307.89, 393.10 309.29 C 393.18 310.69, 392.93 311.73, 392.19 314.58 C 391.46 317.43, 390.99 319.45, 389.43 323.54 C 387.87 327.62, 386.75 330.20, 384.38 334.99 C 382.01 339.78, 380.55 342.52, 377.58 347.47 C 374.62 352.43, 372.90 355.21, 369.56 359.77 C 366.22 364.33, 364.37 366.67, 360.90 370.28 C 357.43 373.89, 355.64 375.47, 352.20 377.83 C 348.76 380.19, 346.93 381.04, 343.68 382.08 C 340.43 383.12, 338.80 383.33, 335.97 383.03 C 333.14 382.73, 331.81 382.25, 329.54 380.59 C 327.27 378.94, 326.18 377.78, 324.62 374.75 C 323.06 371.73, 322.38 369.67, 321.73 365.48 C 321.08 361.29, 320.98 358.44, 321.36 353.81 C 321.73 349.18, 322.35 346.58, 323.61 342.32 C 324.86 338.07, 325.90 335.74, 327.65 332.52 C 329.40 329.29, 330.63 328.04, 332.38 326.21 C 334.13 324.37, 335.07 323.83, 336.41 323.34 C 337.75 322.85, 338.38 322.91, 339.09 323.77 C 339.80 324.63, 340.01 325.39, 339.97 327.64 C 339.92 329.88, 339.74 331.49, 338.87 334.98 C 338.00 338.48, 337.32 340.86, 335.61 345.10 C 333.90 349.34, 332.77 351.81, 330.33 356.18 C 327.89 360.55, 326.38 362.95, 323.41 366.96 C 320.43 370.98, 318.76 373.06, 315.45 376.26 C 312.14 379.45, 310.30 380.73, 306.86 382.92 C 303.43 385.12, 301.55 385.99, 298.27 387.21 C 294.98 388.44, 293.21 388.77, 290.44 389.03 C 287.66 389.29, 286.37 389.28, 284.37 388.51 C 282.38 387.74, 281.43 387.03, 280.47 385.19 C 279.51 383.36, 279.27 382.07, 279.56 379.34 C 279.86 376.62, 280.50 374.63, 281.94 371.57 C 283.37 368.52, 284.56 366.61, 286.72 364.07 C 288.89 361.54, 290.54 360.44, 292.76 358.90 C 294.98 357.37, 296.27 356.80, 297.83 356.38 C 299.39 355.97, 299.98 356.16, 300.56 356.81 C 301.14 357.47, 301.16 358.17, 300.73 359.64 C 300.30 361.12, 299.81 362.17, 298.41 364.19 C 297.00 366.21, 295.81 367.61, 293.70 369.75 C 291.58 371.89, 290.27 373.18, 287.83 374.89 C 285.40 376.61, 283.73 377.24, 281.53 378.31 C 279.32 379.38, 278.42 379.73, 276.82 380.24 C 275.22 380.75, 274.20 380.51, 273.54 380.88 C 272.89 381.25, 272.79 381.72, 273.54 382.09" />
    <path stroke-linecap="null" stroke-linejoin="null" stroke-dasharray="null" stroke-width="5" stroke="#000000" fill="none" d="M 485.44,383.66 C 484.99 384.36, 484.85 385.28, 484.34 387.30 C 483.84 389.32, 483.61 390.84, 482.92 393.78 C 482.24 396.71, 481.97 398.61, 480.92 401.98 C 479.87 405.35, 479.06 407.29, 477.67 410.64 C 476.28 413.99, 475.42 415.76, 473.98 418.74 C 472.54 421.72, 471.61 423.09, 470.47 425.55 C 469.34 428.00, 468.88 429.35, 468.30 431.03 C 467.71 432.71, 467.56 433.28, 467.55 433.93 C 467.53 434.58, 467.73 434.68, 468.23 434.27 C 468.74 433.86, 469.13 433.39, 470.08 431.89 C 471.03 430.39, 471.75 429.18, 472.98 426.76 C 474.21 424.34, 474.84 422.83, 476.22 419.80 C 477.61 416.76, 478.46 414.97, 479.91 411.58 C 481.36 408.18, 482.25 406.25, 483.46 402.83 C 484.67 399.41, 485.25 397.50, 485.95 394.48 C 486.64 391.45, 486.82 389.83, 486.94 387.69 C 487.07 385.55, 486.87 384.57, 486.57 383.76 C 486.27 382.96, 485.88 382.95, 485.44 383.66" />
    <path stroke-linecap="null" stroke-linejoin="null" stroke-dasharray="null" stroke-width="5" stroke="#000000" fill="none" d="M 530.32,313.94 C 529.85 315.24, 529.62 316.97, 529.16 320.54 C 528.71 324.11, 528.60 326.79, 528.04 331.79 C 527.47 336.80, 527.04 340.26, 526.34 345.57 C 525.64 350.87, 525.13 353.54, 524.53 358.31 C 523.93 363.09, 523.66 365.53, 523.34 369.45 C 523.03 373.36, 522.90 375.14, 522.96 377.91 C 523.01 380.67, 523.30 382.20, 523.62 383.26 C 523.94 384.33, 524.26 384.31, 524.54 383.25 C 524.82 382.18, 524.89 380.67, 525.04 377.94 C 525.18 375.21, 525.03 373.47, 525.27 369.58 C 525.52 365.70, 525.69 363.28, 526.26 358.52 C 526.83 353.77, 527.37 351.11, 528.11 345.81 C 528.86 340.51, 529.35 337.03, 529.97 332.02 C 530.59 327.01, 530.93 324.35, 531.23 320.76 C 531.53 317.17, 531.65 315.43, 531.47 314.06 C 531.29 312.70, 530.78 312.65, 530.32 313.94" />
    <path stroke-linecap="null" stroke-linejoin="null" stroke-dasharray="null" stroke-width="5" stroke="#000000" fill="none" d="M 613.61,371.14 C 612.97 370.67, 612.06 370.19, 610.28 369.98 C 608.50 369.77, 607.24 369.67, 604.71 370.09 C 602.18 370.51, 600.33 370.84, 597.63 372.08 C 594.93 373.32, 593.41 374.41, 591.19 376.29 C 588.97 378.16, 587.92 379.40, 586.54 381.45 C 585.16 383.50, 584.62 384.58, 584.30 386.54 C 583.99 388.51, 584.19 389.66, 584.96 391.28 C 585.73 392.90, 586.43 393.85, 588.17 394.65 C 589.91 395.45, 591.28 395.55, 593.67 395.27 C 596.06 394.99, 597.50 394.63, 600.13 393.23 C 602.76 391.84, 604.19 390.56, 606.81 388.30 C 609.43 386.03, 610.92 384.44, 613.21 381.90 C 615.51 379.37, 616.72 377.77, 618.29 375.63 C 619.86 373.50, 620.38 372.23, 621.06 371.21 C 621.75 370.18, 621.73 370.05, 621.72 370.51 C 621.71 370.97, 621.13 371.66, 621.00 373.51 C 620.88 375.36, 620.71 377.17, 621.10 379.76 C 621.48 382.35, 622.04 384.20, 622.94 386.46 C 623.83 388.73, 624.52 389.70, 625.56 391.09 C 626.60 392.49, 627.27 392.90, 628.14 393.46 C 629.02 394.01, 629.52 393.90, 629.94 393.86 C 630.36 393.82, 630.39 393.56, 630.25 393.24 C 630.11 392.92, 629.73 392.95, 629.23 392.26 C 628.73 391.57, 628.37 391.16, 627.76 389.78 C 627.16 388.41, 626.75 387.54, 626.21 385.40 C 625.67 383.26, 625.55 381.52, 625.08 379.08 C 624.61 376.64, 624.37 375.04, 623.87 373.21 C 623.36 371.38, 623.35 370.60, 622.55 369.93 C 621.75 369.26, 621.20 369.11, 619.88 369.88 C 618.56 370.65, 617.68 371.74, 615.94 373.78 C 614.20 375.82, 613.35 377.59, 611.17 380.07 C 608.98 382.55, 607.51 384.10, 605.01 386.17 C 602.50 388.25, 601.01 389.20, 598.65 390.45 C 596.29 391.70, 595.14 392.02, 593.22 392.41 C 591.30 392.81, 590.33 392.83, 589.07 392.42 C 587.82 392.01, 587.44 391.43, 586.95 390.35 C 586.45 389.26, 586.23 388.45, 586.59 387.00 C 586.95 385.54, 587.44 384.71, 588.75 383.06 C 590.07 381.41, 591.12 380.32, 593.17 378.74 C 595.23 377.17, 596.59 376.27, 599.03 375.19 C 601.47 374.12, 603.11 373.89, 605.36 373.37 C 607.61 372.84, 608.66 372.77, 610.28 372.57 C 611.89 372.36, 612.78 372.60, 613.44 372.32 C 614.11 372.04, 614.24 371.61, 613.61 371.14" />
    <path stroke-linecap="null" stroke-linejoin="null" stroke-dasharray="null" stroke-width="5" stroke="#000000" fill="none" d="M 650.44,366.81 C 649.96 367.34, 649.68 368.16, 649.21 369.64 C 648.73 371.12, 648.46 372.22, 648.07 374.19 C 647.69 376.17, 647.42 377.60, 647.27 379.51 C 647.12 381.43, 646.99 382.52, 647.32 383.75 C 647.65 384.98, 648.09 385.54, 648.94 385.66 C 649.79 385.79, 650.28 385.42, 651.58 384.37 C 652.88 383.31, 653.71 382.27, 655.43 380.39 C 657.16 378.51, 658.13 377.05, 660.19 374.98 C 662.24 372.90, 663.72 371.73, 665.73 370.02 C 667.73 368.32, 668.80 367.39, 670.21 366.47 C 671.61 365.54, 672.07 365.18, 672.73 365.40 C 673.40 365.62, 673.41 366.23, 673.54 367.56 C 673.68 368.90, 673.52 370.17, 673.41 372.08 C 673.29 374.00, 673.11 375.20, 672.98 377.14 C 672.84 379.08, 672.61 380.23, 672.74 381.80 C 672.87 383.38, 673.00 384.20, 673.63 385.01 C 674.25 385.81, 674.67 385.97, 675.87 385.83 C 677.07 385.69, 677.88 385.40, 679.63 384.30 C 681.38 383.21, 682.52 382.16, 684.62 380.36 C 686.73 378.56, 687.87 377.05, 690.15 375.31 C 692.43 373.58, 693.86 372.73, 696.03 371.68 C 698.20 370.64, 699.28 370.14, 701.00 370.08 C 702.72 370.02, 703.39 370.39, 704.62 371.39 C 705.85 372.38, 706.29 373.35, 707.15 375.05 C 708.01 376.74, 708.24 377.89, 708.91 379.87 C 709.58 381.84, 709.79 383.03, 710.51 384.92 C 711.23 386.81, 711.86 388.50, 712.52 389.31 C 713.17 390.11, 713.64 389.99, 713.79 388.95 C 713.93 387.92, 713.63 386.16, 713.23 384.14 C 712.84 382.12, 712.54 380.96, 711.81 378.87 C 711.08 376.77, 710.76 375.54, 709.60 373.66 C 708.44 371.79, 707.73 370.68, 706.02 369.50 C 704.30 368.32, 703.25 367.84, 701.03 367.74 C 698.80 367.64, 697.43 368.02, 694.88 369.00 C 692.32 369.98, 690.80 370.95, 688.25 372.64 C 685.71 374.33, 684.27 375.65, 682.15 377.46 C 680.02 379.28, 679.01 380.38, 677.63 381.72 C 676.24 383.06, 675.77 383.62, 675.22 384.16 C 674.67 384.70, 674.82 384.88, 674.89 384.44 C 674.96 384.00, 675.26 383.35, 675.55 381.96 C 675.85 380.56, 676.12 379.44, 676.37 377.47 C 676.62 375.50, 676.90 374.21, 676.81 372.10 C 676.71 369.98, 676.60 368.52, 675.89 366.89 C 675.18 365.27, 674.61 364.47, 673.26 363.96 C 671.91 363.44, 671.05 363.61, 669.14 364.31 C 667.24 365.01, 666.00 365.83, 663.73 367.47 C 661.45 369.10, 660.00 370.40, 657.77 372.49 C 655.55 374.59, 654.24 375.90, 652.59 377.92 C 650.93 379.95, 650.24 381.23, 649.49 382.62 C 648.74 384.00, 648.83 384.62, 648.83 384.86 C 648.83 385.10, 649.08 384.78, 649.48 383.82 C 649.89 382.86, 650.43 381.89, 650.85 380.07 C 651.28 378.25, 651.41 376.73, 651.62 374.73 C 651.83 372.73, 651.90 371.61, 651.90 370.07 C 651.91 368.52, 651.92 367.66, 651.63 367.00 C 651.34 366.35, 650.93 366.28, 650.44 366.81" />
    <path stroke-linecap="null" stroke-linejoin="null" stroke-dasharray="null" stroke-width="5" stroke="#000000" fill="none" d="M 794.42,331.40 C 793.80 332.42, 793.19 333.71, 792.43 336.79 C 791.66 339.86, 791.28 342.13, 790.61 346.79 C 789.94 351.45, 789.51 354.68, 789.08 360.09 C 788.65 365.49, 788.59 368.68, 788.46 373.83 C 788.33 378.98, 788.36 381.72, 788.44 385.82 C 788.52 389.92, 788.37 391.59, 788.86 394.34 C 789.34 397.10, 789.83 398.30, 790.86 399.60 C 791.90 400.90, 792.64 401.21, 794.04 400.84 C 795.44 400.47, 796.30 399.73, 797.87 397.75 C 799.43 395.76, 800.16 394.21, 801.85 390.93 C 803.54 387.65, 804.53 385.27, 806.30 381.35 C 808.07 377.42, 809.01 374.81, 810.69 371.30 C 812.36 367.78, 813.49 366.00, 814.68 363.76 C 815.86 361.52, 816.10 360.61, 816.59 360.10 C 817.07 359.60, 816.92 359.90, 817.10 361.25 C 817.29 362.60, 817.21 363.99, 817.51 366.86 C 817.82 369.73, 818.13 371.99, 818.62 375.61 C 819.11 379.23, 819.31 381.53, 819.96 384.95 C 820.61 388.38, 820.87 390.13, 821.88 392.74 C 822.88 395.36, 823.52 396.50, 824.97 398.03 C 826.42 399.56, 827.25 400.07, 829.14 400.39 C 831.02 400.70, 832.22 400.68, 834.40 399.61 C 836.57 398.54, 837.82 397.61, 840.02 395.04 C 842.21 392.48, 843.19 390.55, 845.36 386.79 C 847.53 383.03, 848.72 380.60, 850.85 376.22 C 852.98 371.84, 854.15 368.96, 855.99 364.90 C 857.84 360.84, 858.85 358.89, 860.07 355.92 C 861.28 352.95, 861.59 351.80, 862.07 350.04 C 862.55 348.27, 862.51 347.71, 862.46 347.08 C 862.41 346.45, 862.22 346.41, 861.83 346.89 C 861.45 347.36, 861.30 347.83, 860.52 349.46 C 859.74 351.09, 859.20 352.09, 857.93 355.02 C 856.65 357.94, 855.93 360.01, 854.16 364.08 C 852.39 368.15, 851.21 371.03, 849.07 375.35 C 846.93 379.66, 845.68 382.07, 843.46 385.65 C 841.24 389.24, 840.02 390.92, 837.96 393.26 C 835.91 395.60, 834.89 396.32, 833.18 397.35 C 831.47 398.38, 830.74 398.55, 829.42 398.41 C 828.10 398.27, 827.59 397.95, 826.58 396.64 C 825.58 395.33, 825.20 394.27, 824.40 391.84 C 823.60 389.41, 823.15 387.80, 822.59 384.48 C 822.02 381.16, 821.92 378.88, 821.56 375.26 C 821.19 371.64, 821.31 369.32, 820.75 366.38 C 820.20 363.45, 819.71 362.03, 818.78 360.58 C 817.85 359.13, 817.36 358.76, 816.10 359.13 C 814.84 359.50, 814.01 360.21, 812.49 362.45 C 810.98 364.68, 810.21 366.71, 808.54 370.29 C 806.87 373.87, 805.98 376.49, 804.15 380.35 C 802.32 384.22, 801.12 386.47, 799.39 389.63 C 797.67 392.78, 796.71 394.15, 795.53 396.13 C 794.34 398.11, 794.14 399.00, 793.47 399.53 C 792.80 400.06, 792.66 399.89, 792.19 398.78 C 791.73 397.66, 791.52 396.58, 791.15 393.97 C 790.78 391.37, 790.53 389.78, 790.34 385.76 C 790.15 381.74, 790.09 378.97, 790.20 373.87 C 790.32 368.77, 790.41 365.60, 790.90 360.24 C 791.39 354.89, 791.90 351.70, 792.66 347.11 C 793.41 342.51, 794.10 340.36, 794.68 337.27 C 795.25 334.19, 795.57 332.86, 795.52 331.68 C 795.47 330.51, 795.04 330.38, 794.42 331.40" />
    <path stroke-linecap="null" stroke-linejoin="null" stroke-dasharray="null" stroke-width="5" stroke="#000000" fill="none" d="M 880.92,366.48 C 880.47 366.64, 880.04 366.86, 879.61 367.75 C 879.18 368.64, 879.08 369.24, 878.77 370.94 C 878.45 372.65, 878.15 373.86, 878.04 376.26 C 877.93 378.66, 878.01 380.28, 878.23 382.95 C 878.45 385.61, 878.52 387.19, 879.13 389.59 C 879.74 391.99, 880.12 393.23, 881.27 394.94 C 882.41 396.66, 883.26 397.43, 884.86 398.17 C 886.46 398.90, 887.29 398.93, 889.27 398.61 C 891.24 398.29, 892.48 397.89, 894.73 396.57 C 896.99 395.26, 898.20 394.14, 900.54 392.03 C 902.88 389.92, 904.21 388.32, 906.43 386.02 C 908.64 383.73, 910.05 382.34, 911.61 380.57 C 913.16 378.81, 913.66 377.79, 914.22 377.21 C 914.77 376.63, 914.52 376.66, 914.38 377.67 C 914.25 378.67, 913.67 379.90, 913.53 382.23 C 913.40 384.55, 913.10 386.58, 913.71 389.28 C 914.33 391.99, 915.23 393.53, 916.61 395.75 C 917.98 397.97, 919.07 399.07, 920.58 400.37 C 922.08 401.67, 923.31 402.03, 924.14 402.25 C 924.98 402.46, 925.12 402.14, 924.75 401.44 C 924.38 400.74, 923.37 400.19, 922.30 398.75 C 921.22 397.30, 920.37 396.26, 919.38 394.21 C 918.39 392.16, 917.83 390.92, 917.34 388.50 C 916.85 386.08, 917.21 384.36, 916.94 382.12 C 916.67 379.88, 916.64 378.53, 915.98 377.30 C 915.33 376.07, 914.96 375.74, 913.67 375.97 C 912.38 376.20, 911.43 376.86, 909.54 378.45 C 907.65 380.03, 906.46 381.64, 904.24 383.89 C 902.02 386.15, 900.67 387.70, 898.45 389.71 C 896.22 391.72, 895.04 392.65, 893.10 393.95 C 891.15 395.25, 890.19 395.74, 888.72 396.21 C 887.25 396.67, 886.81 396.78, 885.75 396.27 C 884.70 395.76, 884.17 395.12, 883.44 393.66 C 882.71 392.20, 882.43 391.15, 882.09 388.97 C 881.74 386.79, 881.77 385.26, 881.70 382.75 C 881.62 380.24, 881.63 378.71, 881.72 376.42 C 881.81 374.12, 882.11 372.93, 882.13 371.29 C 882.16 369.65, 881.91 369.09, 881.85 368.22 C 881.79 367.35, 882.02 367.28, 881.83 366.94 C 881.64 366.59, 881.36 366.32, 880.92 366.48" />
    <path stroke-linecap="null" stroke-linejoin="null" stroke-dasharray="null" stroke-width="5" stroke="#000000" fill="none" d="M 1025.50,337.52 C 1025.17 338.37, 1025.09 339.34, 1024.99 341.73 C 1024.88 344.12, 1024.98 345.54, 1024.98 349.48 C 1024.99 353.42, 1025.09 356.39, 1025.00 361.41 C 1024.91 366.44, 1024.73 369.46, 1024.53 374.58 C 1024.33 379.71, 1024.10 382.63, 1023.99 387.03 C 1023.88 391.42, 1023.59 393.47, 1023.97 396.56 C 1024.36 399.65, 1024.72 400.98, 1025.90 402.45 C 1027.08 403.93, 1028.08 404.32, 1029.89 403.93 C 1031.70 403.54, 1032.88 402.81, 1034.95 400.49 C 1037.03 398.18, 1038.03 396.14, 1040.26 392.35 C 1042.49 388.56, 1043.80 385.79, 1046.11 381.56 C 1048.41 377.34, 1049.76 374.80, 1051.79 371.25 C 1053.82 367.69, 1055.05 365.94, 1056.26 363.80 C 1057.48 361.66, 1057.56 360.81, 1057.85 360.54 C 1058.13 360.27, 1057.84 360.91, 1057.68 362.46 C 1057.52 364.01, 1057.12 365.44, 1057.05 368.29 C 1056.98 371.14, 1057.00 373.15, 1057.35 376.71 C 1057.70 380.26, 1058.03 382.61, 1058.80 386.07 C 1059.56 389.52, 1059.97 391.34, 1061.20 393.98 C 1062.43 396.63, 1063.18 397.80, 1064.94 399.28 C 1066.70 400.75, 1067.88 401.30, 1070.00 401.37 C 1072.13 401.43, 1073.48 400.98, 1075.57 399.59 C 1077.66 398.21, 1078.66 397.07, 1080.45 394.45 C 1082.24 391.82, 1083.01 390.15, 1084.52 386.48 C 1086.03 382.81, 1086.76 380.56, 1088.01 376.10 C 1089.26 371.65, 1089.79 368.90, 1090.76 364.22 C 1091.74 359.54, 1092.16 356.91, 1092.88 352.71 C 1093.61 348.51, 1093.90 346.48, 1094.40 343.22 C 1094.90 339.96, 1095.18 338.52, 1095.39 336.42 C 1095.59 334.31, 1095.43 333.78, 1095.42 332.70 C 1095.42 331.61, 1095.49 331.38, 1095.36 331.01 C 1095.23 330.65, 1095.05 330.60, 1094.79 330.89 C 1094.52 331.19, 1094.36 331.44, 1094.03 332.48 C 1093.70 333.53, 1093.53 334.03, 1093.15 336.11 C 1092.77 338.19, 1092.59 339.64, 1092.15 342.90 C 1091.71 346.15, 1091.60 348.20, 1090.95 352.39 C 1090.30 356.58, 1089.88 359.20, 1088.91 363.83 C 1087.94 368.46, 1087.39 371.20, 1086.09 375.55 C 1084.78 379.89, 1083.99 382.10, 1082.40 385.56 C 1080.82 389.02, 1079.83 390.48, 1078.16 392.86 C 1076.49 395.24, 1075.67 396.18, 1074.04 397.46 C 1072.41 398.73, 1071.54 399.18, 1070.02 399.22 C 1068.49 399.26, 1067.69 398.91, 1066.42 397.64 C 1065.16 396.37, 1064.70 395.31, 1063.69 392.88 C 1062.69 390.46, 1062.09 388.79, 1061.41 385.51 C 1060.73 382.22, 1060.49 379.93, 1060.30 376.47 C 1060.10 373.02, 1060.54 371.10, 1060.41 368.25 C 1060.29 365.40, 1060.21 363.92, 1059.66 362.23 C 1059.11 360.54, 1058.73 359.74, 1057.67 359.80 C 1056.60 359.86, 1055.88 360.45, 1054.33 362.53 C 1052.78 364.60, 1051.91 366.57, 1049.90 370.18 C 1047.89 373.78, 1046.61 376.36, 1044.28 380.55 C 1041.94 384.74, 1040.52 387.49, 1038.24 391.12 C 1035.95 394.75, 1034.62 396.47, 1032.85 398.72 C 1031.07 400.97, 1030.50 401.79, 1029.38 402.36 C 1028.25 402.93, 1027.85 402.77, 1027.22 401.56 C 1026.59 400.36, 1026.50 399.22, 1026.23 396.32 C 1025.97 393.41, 1025.86 391.39, 1025.89 387.06 C 1025.91 382.72, 1026.13 379.78, 1026.36 374.66 C 1026.59 369.54, 1026.81 366.51, 1027.01 361.47 C 1027.22 356.44, 1027.32 353.46, 1027.41 349.50 C 1027.49 345.55, 1027.58 344.11, 1027.42 341.70 C 1027.26 339.30, 1027.00 338.32, 1026.62 337.48 C 1026.23 336.64, 1025.83 336.67, 1025.50 337.52" />
    <path stroke-linecap="null" stroke-linejoin="null" stroke-dasharray="null" stroke-width="5" stroke="#000000" fill="none" d="M 1107.55,381.88 C 1108.14 382.24, 1108.98 382.54, 1110.49 382.51 C 1112.00 382.47, 1113.06 382.38, 1115.10 381.71 C 1117.14 381.04, 1118.62 380.51, 1120.68 379.16 C 1122.73 377.80, 1123.89 376.70, 1125.36 374.95 C 1126.83 373.20, 1127.38 372.17, 1128.02 370.41 C 1128.66 368.65, 1128.97 367.55, 1128.56 366.15 C 1128.14 364.75, 1127.45 363.95, 1125.94 363.41 C 1124.43 362.86, 1123.16 362.82, 1120.99 363.43 C 1118.81 364.04, 1117.38 364.72, 1115.06 366.46 C 1112.75 368.20, 1111.39 369.65, 1109.41 372.15 C 1107.42 374.65, 1106.29 376.11, 1105.14 378.97 C 1103.99 381.82, 1103.55 383.59, 1103.67 386.40 C 1103.80 389.22, 1104.28 390.83, 1105.76 393.04 C 1107.24 395.25, 1108.45 396.28, 1111.07 397.46 C 1113.68 398.64, 1115.41 398.95, 1118.85 398.92 C 1122.29 398.89, 1124.40 398.47, 1128.28 397.31 C 1132.15 396.16, 1134.31 395.09, 1138.21 393.15 C 1142.11 391.21, 1144.13 389.72, 1147.79 387.62 C 1151.44 385.51, 1153.38 384.24, 1156.48 382.62 C 1159.57 380.99, 1161.06 380.22, 1163.25 379.48 C 1165.44 378.75, 1166.14 378.58, 1167.44 378.95 C 1168.75 379.31, 1169.06 380.12, 1169.77 381.32 C 1170.49 382.52, 1170.59 383.61, 1171.02 384.96 C 1171.44 386.31, 1171.54 387.04, 1171.88 388.07 C 1172.23 389.10, 1172.37 389.72, 1172.72 390.12 C 1173.08 390.52, 1173.38 390.53, 1173.67 390.05 C 1173.96 389.58, 1174.16 388.94, 1174.19 387.75 C 1174.21 386.55, 1174.31 385.64, 1173.81 384.07 C 1173.31 382.51, 1172.85 381.32, 1171.69 379.93 C 1170.52 378.54, 1169.79 377.67, 1167.97 377.13 C 1166.15 376.59, 1165.08 376.54, 1162.57 377.24 C 1160.06 377.94, 1158.57 378.90, 1155.41 380.62 C 1152.24 382.34, 1150.37 383.70, 1146.75 385.83 C 1143.13 387.97, 1141.11 389.42, 1137.30 391.28 C 1133.48 393.15, 1131.34 394.12, 1127.65 395.15 C 1123.96 396.17, 1121.95 396.41, 1118.84 396.40 C 1115.74 396.38, 1114.32 396.01, 1112.12 395.07 C 1109.91 394.12, 1108.98 393.42, 1107.82 391.67 C 1106.66 389.92, 1106.32 388.65, 1106.31 386.34 C 1106.31 384.02, 1106.71 382.54, 1107.80 380.09 C 1108.89 377.64, 1109.90 376.28, 1111.78 374.10 C 1113.65 371.92, 1115.11 370.78, 1117.15 369.21 C 1119.19 367.63, 1120.33 366.99, 1121.99 366.24 C 1123.65 365.49, 1124.49 365.39, 1125.44 365.45 C 1126.39 365.51, 1126.69 365.75, 1126.73 366.53 C 1126.77 367.31, 1126.37 368.06, 1125.64 369.33 C 1124.91 370.60, 1124.44 371.50, 1123.07 372.87 C 1121.70 374.25, 1120.62 375.07, 1118.79 376.21 C 1116.96 377.35, 1115.66 377.81, 1113.92 378.56 C 1112.17 379.31, 1111.34 379.53, 1110.07 379.95 C 1108.79 380.38, 1108.03 380.30, 1107.53 380.69 C 1107.02 381.07, 1106.96 381.52, 1107.55 381.88" />
    <path stroke-linecap="null" stroke-linejoin="null" stroke-dasharray="null" stroke-width="5" stroke="#000000" fill="none" d="M 1186.90,353.08 C 1187.18 353.17, 1187.33 352.95, 1187.14 352.72 C 1186.96 352.48, 1186.25 352.00, 1185.96 351.91 C 1185.68 351.82, 1185.53 352.04, 1185.72 352.27 C 1185.90 352.51, 1186.61 352.99, 1186.90 353.08" />
    <path stroke-linecap="null" stroke-linejoin="null" stroke-dasharray="null" stroke-width="5" stroke="#000000" fill="none" d="M 1225.84,399.82 C 1225.54 400.02, 1225.50 400.65, 1225.77 400.88 C 1226.04 401.12, 1226.89 401.18, 1227.19 400.99 C 1227.49 400.80, 1227.54 400.16, 1227.27 399.93 C 1227.00 399.69, 1226.14 399.63, 1225.84 399.82" />
  </g>
</svg>
