<svg xmlns="http://www.w3.org/2000/svg" id="canvas" viewBox="223.973 278.070 1090.858 132.595"><path d="M 227.20,287.47 C 226.95 288.48, 226.87 289.50, 227.15 292.36 C 227.43 295.21, 227.96 297.07, 228.59 301.75 C 229.22 306.42, 229.58 309.55, 230.30 315.73 C 231.02 321.92, 231.50 325.66, 232.19 332.68 C 232.89 339.70, 233.15 343.69, 233.76 350.81 C 234.37 357.94, 234.63 361.70, 235.25 368.31 C 235.88 374.92, 236.28 378.25, 236.89 383.88 C 237.49 389.51, 237.71 392.29, 238.30 396.47 C 238.88 400.65, 239.02 402.54, 239.83 404.78 C 240.65 407.02, 241.35 407.59, 242.37 407.66 C 243.39 407.73, 244.11 407.16, 244.92 405.11 C 245.74 403.06, 245.94 401.24, 246.45 397.40 C 246.95 393.56, 247.05 390.83, 247.45 385.91 C 247.84 380.99, 248.00 377.99, 248.44 372.80 C 248.89 367.61, 249.10 364.75, 249.68 359.96 C 250.27 355.17, 250.58 352.80, 251.35 348.85 C 252.12 344.90, 252.58 343.12, 253.52 340.22 C 254.46 337.32, 255.02 336.18, 256.07 334.36 C 257.12 332.54, 257.65 331.87, 258.78 331.11 C 259.92 330.34, 260.49 330.20, 261.74 330.54 C 262.99 330.88, 263.58 331.35, 265.02 332.78 C 266.47 334.22, 267.31 335.17, 268.98 337.70 C 270.65 340.22, 271.68 341.92, 273.39 345.41 C 275.09 348.90, 275.98 351.11, 277.51 355.14 C 279.03 359.18, 279.80 361.52, 281.02 365.57 C 282.23 369.62, 282.75 371.78, 283.58 375.41 C 284.42 379.03, 284.64 380.80, 285.19 383.68 C 285.75 386.56, 286.04 387.83, 286.37 389.82 C 286.70 391.80, 286.79 392.52, 286.84 393.61 C 286.90 394.70, 286.71 394.90, 286.66 395.28 C 286.60 395.67, 286.66 395.50, 286.55 395.53 C 286.45 395.57, 286.27 395.31, 286.13 395.46 C 286.00 395.62, 285.77 396.09, 285.89 396.32 C 286.02 396.55, 286.34 396.68, 286.76 396.62 C 287.19 396.55, 287.56 396.57, 288.01 395.99 C 288.45 395.41, 288.81 395.03, 288.99 393.72 C 289.18 392.42, 289.16 391.59, 288.93 389.47 C 288.70 387.35, 288.47 386.06, 287.86 383.14 C 287.24 380.22, 286.79 378.49, 285.84 374.85 C 284.90 371.21, 284.36 369.03, 283.12 364.94 C 281.88 360.84, 281.13 358.48, 279.65 354.35 C 278.17 350.23, 277.34 347.99, 275.73 344.32 C 274.12 340.65, 273.34 338.75, 271.60 336.00 C 269.85 333.25, 268.91 332.10, 267.02 330.55 C 265.14 329.00, 264.06 328.52, 262.18 328.25 C 260.30 327.99, 259.27 328.27, 257.62 329.24 C 255.97 330.20, 255.24 331.03, 253.95 333.08 C 252.67 335.13, 252.12 336.41, 251.19 339.49 C 250.27 342.57, 250.00 344.43, 249.33 348.48 C 248.65 352.53, 248.37 354.91, 247.81 359.74 C 247.25 364.57, 247.05 367.43, 246.52 372.62 C 246.00 377.81, 245.77 380.81, 245.19 385.69 C 244.61 390.57, 244.16 393.26, 243.64 397.02 C 243.11 400.79, 242.82 402.50, 242.58 404.50 C 242.34 406.50, 242.59 407.07, 242.44 407.01 C 242.29 406.95, 242.29 406.37, 241.84 404.20 C 241.39 402.03, 240.86 400.28, 240.17 396.18 C 239.48 392.08, 239.10 389.31, 238.38 383.71 C 237.67 378.11, 237.25 374.78, 236.59 368.18 C 235.93 361.58, 235.67 357.83, 235.08 350.70 C 234.48 343.57, 234.23 339.58, 233.61 332.55 C 233.00 325.52, 232.58 321.77, 232.00 315.56 C 231.43 309.35, 231.19 306.21, 230.74 301.50 C 230.29 296.79, 230.22 294.85, 229.74 292.01 C 229.27 289.18, 228.87 288.22, 228.36 287.31 C 227.85 286.40, 227.44 286.47, 227.20 287.47" style="stroke: black; fill: black;"/><path d="M 279.76,358.07 C 279.96 358.72, 280.41 359.24, 281.49 360.31 C 282.57 361.38, 283.31 362.05, 285.16 363.42 C 287.02 364.80, 288.29 365.65, 290.76 367.17 C 293.23 368.68, 294.72 369.64, 297.51 371.00 C 300.31 372.37, 301.84 373.09, 304.74 373.99 C 307.63 374.89, 309.14 375.27, 312.00 375.51 C 314.85 375.75, 316.35 375.70, 319.02 375.21 C 321.70 374.72, 323.04 374.24, 325.38 373.04 C 327.71 371.84, 328.91 371.04, 330.70 369.22 C 332.49 367.40, 333.33 366.17, 334.33 363.93 C 335.34 361.69, 335.62 360.26, 335.73 358.02 C 335.84 355.78, 335.68 354.56, 334.90 352.73 C 334.12 350.89, 333.39 349.92, 331.83 348.85 C 330.26 347.78, 329.08 347.35, 327.07 347.39 C 325.07 347.42, 323.75 347.76, 321.80 349.01 C 319.84 350.26, 318.73 351.35, 317.29 353.63 C 315.85 355.91, 315.07 357.43, 314.59 360.41 C 314.10 363.39, 314.14 365.27, 314.87 368.53 C 315.60 371.79, 316.26 373.70, 318.22 376.71 C 320.18 379.73, 321.61 381.22, 324.67 383.61 C 327.73 385.99, 329.67 387.18, 333.53 388.65 C 337.40 390.12, 339.72 390.70, 344.01 390.95 C 348.29 391.20, 350.70 391.02, 354.96 389.90 C 359.23 388.79, 361.45 387.88, 365.33 385.38 C 369.20 382.88, 371.20 381.26, 374.36 377.40 C 377.52 373.54, 378.97 371.05, 381.12 366.07 C 383.27 361.10, 384.10 358.11, 385.11 352.51 C 386.11 346.92, 386.29 343.77, 386.17 338.09 C 386.05 332.42, 385.59 329.35, 384.52 324.14 C 383.45 318.93, 382.50 316.30, 380.81 312.04 C 379.11 307.78, 378.02 305.78, 376.05 302.84 C 374.07 299.90, 372.93 298.60, 370.94 297.33 C 368.95 296.06, 367.71 295.77, 366.09 296.49 C 364.48 297.21, 363.48 298.14, 362.86 300.93 C 362.24 303.71, 362.45 305.86, 362.99 310.42 C 363.52 314.97, 364.07 318.03, 365.54 323.69 C 367.01 329.35, 368.04 332.76, 370.34 338.70 C 372.64 344.63, 374.12 347.94, 377.05 353.36 C 379.98 358.79, 381.74 361.53, 385.01 365.83 C 388.28 370.14, 390.05 372.08, 393.40 374.90 C 396.76 377.73, 398.49 378.80, 401.78 379.97 C 405.08 381.15, 406.81 381.38, 409.88 380.77 C 412.95 380.16, 414.51 379.31, 417.13 376.93 C 419.75 374.55, 420.93 372.82, 422.99 368.87 C 425.05 364.92, 426.07 362.39, 427.45 357.20 C 428.82 352.01, 429.32 348.80, 429.86 342.94 C 430.41 337.09, 430.45 333.74, 430.18 327.92 C 429.90 322.10, 429.48 318.99, 428.47 313.83 C 427.46 308.67, 426.54 306.16, 425.13 302.12 C 423.72 298.07, 422.96 296.29, 421.43 293.61 C 419.91 290.92, 419.03 289.83, 417.50 288.69 C 415.97 287.55, 414.98 287.31, 413.79 287.91 C 412.59 288.51, 411.86 289.32, 411.53 291.71 C 411.19 294.10, 411.45 295.88, 412.11 299.87 C 412.77 303.87, 413.37 306.53, 414.81 311.70 C 416.25 316.87, 417.19 320.12, 419.30 325.72 C 421.42 331.33, 422.76 334.44, 425.40 339.72 C 428.05 345.01, 429.57 347.71, 432.51 352.14 C 435.46 356.57, 437.08 358.60, 440.12 361.88 C 443.17 365.17, 444.72 366.57, 447.75 368.58 C 450.77 370.59, 452.31 371.31, 455.23 371.94 C 458.15 372.57, 459.67 372.46, 462.33 371.73 C 464.98 371.01, 466.33 370.22, 468.50 368.31 C 470.67 366.40, 471.72 364.92, 473.19 362.18 C 474.67 359.43, 475.23 357.61, 475.86 354.57 C 476.49 351.53, 476.60 349.70, 476.33 346.98 C 476.06 344.26, 475.64 342.85, 474.53 340.96 C 473.41 339.08, 472.43 338.28, 470.74 337.56 C 469.04 336.85, 467.81 336.81, 466.05 337.40 C 464.28 337.99, 463.22 338.77, 461.90 340.52 C 460.58 342.27, 459.91 343.62, 459.44 346.14 C 458.96 348.65, 458.83 350.35, 459.54 353.11 C 460.26 355.86, 461.03 357.47, 463.01 359.91 C 465.00 362.35, 466.48 363.58, 469.46 365.31 C 472.45 367.04, 474.37 367.72, 477.92 368.56 C 481.47 369.41, 483.64 369.63, 487.22 369.54 C 490.80 369.45, 492.79 369.15, 495.82 368.11 C 498.86 367.07, 500.41 366.25, 502.38 364.36 C 504.35 362.46, 505.14 361.10, 505.69 358.64 C 506.23 356.17, 506.13 354.59, 505.10 352.04 C 504.06 349.49, 502.94 348.01, 500.51 345.89 C 498.09 343.76, 496.23 342.77, 492.98 341.40 C 489.73 340.03, 487.63 339.46, 484.26 339.03 C 480.89 338.60, 478.80 338.66, 476.15 339.24 C 473.50 339.82, 471.95 341.17, 471.01 341.93 C 470.06 342.69, 470.31 343.04, 471.42 343.03 C 472.53 343.02, 474.07 342.11, 476.56 341.89 C 479.05 341.67, 480.81 341.50, 483.87 341.94 C 486.93 342.37, 488.92 342.82, 491.85 344.07 C 494.77 345.33, 496.38 346.38, 498.51 348.20 C 500.64 350.02, 501.56 351.19, 502.50 353.17 C 503.44 355.15, 503.60 356.26, 503.22 358.10 C 502.83 359.95, 502.22 360.92, 500.56 362.39 C 498.90 363.86, 497.61 364.55, 494.92 365.45 C 492.24 366.34, 490.42 366.77, 487.14 366.87 C 483.87 366.97, 481.80 366.76, 478.55 365.97 C 475.30 365.17, 473.52 364.49, 470.90 362.89 C 468.28 361.29, 467.07 360.09, 465.43 357.98 C 463.79 355.86, 463.23 354.57, 462.69 352.32 C 462.15 350.07, 462.37 348.74, 462.72 346.73 C 463.07 344.72, 463.59 343.67, 464.44 342.27 C 465.28 340.87, 465.89 340.27, 466.96 339.75 C 468.04 339.23, 468.76 339.19, 469.81 339.68 C 470.86 340.17, 471.53 340.69, 472.21 342.20 C 472.90 343.70, 473.14 344.86, 473.25 347.21 C 473.35 349.55, 473.29 351.21, 472.73 353.92 C 472.17 356.62, 471.67 358.28, 470.43 360.73 C 469.18 363.17, 468.28 364.44, 466.52 366.15 C 464.75 367.86, 463.77 368.59, 461.61 369.26 C 459.46 369.92, 458.28 369.96, 455.74 369.46 C 453.20 368.96, 451.77 368.54, 448.91 366.77 C 446.05 365.00, 444.47 363.73, 441.46 360.62 C 438.45 357.51, 436.81 355.54, 433.88 351.22 C 430.96 346.90, 429.43 344.23, 426.83 339.01 C 424.24 333.79, 422.91 330.70, 420.90 325.13 C 418.90 319.57, 418.02 316.31, 416.79 311.18 C 415.56 306.05, 415.25 303.35, 414.74 299.48 C 414.23 295.62, 414.30 293.98, 414.24 291.87 C 414.17 289.77, 414.03 289.30, 414.42 288.96 C 414.80 288.61, 415.19 288.97, 416.16 290.14 C 417.13 291.32, 417.85 292.30, 419.28 294.83 C 420.71 297.36, 421.80 298.92, 423.30 302.79 C 424.81 306.65, 425.76 309.12, 426.81 314.16 C 427.86 319.20, 428.29 322.27, 428.56 328.00 C 428.84 333.72, 428.78 337.04, 428.20 342.78 C 427.62 348.52, 427.07 351.69, 425.65 356.71 C 424.24 361.73, 423.13 364.17, 421.11 367.87 C 419.09 371.56, 417.90 373.07, 415.56 375.19 C 413.22 377.31, 412.03 377.91, 409.41 378.47 C 406.80 379.02, 405.45 378.96, 402.48 377.97 C 399.51 376.97, 397.80 376.12, 394.56 373.50 C 391.32 370.88, 389.51 369.03, 386.28 364.86 C 383.04 360.69, 381.28 357.99, 378.38 352.64 C 375.49 347.30, 374.03 344.01, 371.82 338.13 C 369.61 332.26, 368.65 328.84, 367.34 323.25 C 366.04 317.66, 365.67 314.55, 365.31 310.18 C 364.94 305.81, 365.25 303.86, 365.54 301.39 C 365.83 298.92, 365.93 298.31, 366.75 297.85 C 367.58 297.39, 368.18 297.83, 369.66 299.09 C 371.14 300.34, 372.27 301.39, 374.15 304.12 C 376.04 306.86, 377.33 308.68, 379.07 312.75 C 380.81 316.83, 381.78 319.41, 382.88 324.48 C 383.97 329.56, 384.43 332.58, 384.56 338.13 C 384.68 343.68, 384.50 346.77, 383.50 352.22 C 382.50 357.68, 381.67 360.59, 379.56 365.39 C 377.45 370.20, 376.02 372.58, 372.96 376.25 C 369.91 379.93, 367.99 381.42, 364.29 383.76 C 360.59 386.10, 358.49 386.92, 354.46 387.93 C 350.43 388.94, 348.16 389.10, 344.14 388.82 C 340.12 388.54, 337.94 387.97, 334.35 386.55 C 330.75 385.13, 328.95 383.96, 326.17 381.72 C 323.39 379.47, 322.14 378.06, 320.45 375.31 C 318.76 372.55, 318.26 370.81, 317.73 367.94 C 317.21 365.08, 317.35 363.48, 317.82 360.97 C 318.29 358.46, 318.95 357.26, 320.10 355.38 C 321.24 353.51, 322.13 352.64, 323.55 351.59 C 324.97 350.55, 325.84 350.29, 327.19 350.17 C 328.55 350.06, 329.30 350.31, 330.34 351.02 C 331.37 351.74, 331.87 352.38, 332.35 353.74 C 332.84 355.09, 332.92 356.04, 332.76 357.82 C 332.60 359.61, 332.38 360.81, 331.54 362.66 C 330.69 364.52, 330.05 365.57, 328.55 367.11 C 327.04 368.66, 326.03 369.35, 324.02 370.39 C 322.01 371.43, 320.84 371.88, 318.49 372.30 C 316.14 372.72, 314.83 372.75, 312.27 372.51 C 309.70 372.26, 308.32 371.95, 305.67 371.07 C 303.02 370.20, 301.58 369.54, 299.00 368.13 C 296.41 366.72, 295.11 365.57, 292.75 364.03 C 290.39 362.48, 289.13 361.60, 287.20 360.41 C 285.27 359.22, 284.44 358.73, 283.10 358.07 C 281.76 357.40, 281.17 357.07, 280.50 357.07 C 279.84 357.08, 279.56 357.42, 279.76 358.07" style="stroke: black; fill: black;"/><path d="M 523.13,372.36 C 522.81 373.24, 522.81 374.37, 522.82 376.56 C 522.82 378.75, 522.82 380.78, 523.16 383.33 C 523.50 385.87, 523.90 388.12, 524.50 389.29 C 525.10 390.47, 525.67 390.47, 526.16 389.22 C 526.65 387.97, 526.97 385.67, 526.94 383.06 C 526.91 380.45, 526.53 378.36, 526.02 376.18 C 525.51 374.00, 524.97 372.92, 524.39 372.16 C 523.81 371.39, 523.44 371.48, 523.13 372.36" style="stroke: black; fill: black;"/><path d="M 570.56,281.86 C 570.35 282.82, 570.35 283.80, 570.70 286.41 C 571.05 289.03, 571.52 290.78, 572.32 294.94 C 573.12 299.10, 573.72 301.94, 574.68 307.21 C 575.64 312.48, 576.14 315.70, 577.12 321.30 C 578.11 326.90, 578.66 329.91, 579.61 335.21 C 580.57 340.51, 581.00 343.17, 581.89 347.78 C 582.78 352.40, 583.20 354.68, 584.06 358.27 C 584.92 361.86, 585.38 363.42, 586.19 365.71 C 587.00 368.01, 587.55 369.00, 588.10 369.75 C 588.65 370.50, 588.94 370.40, 588.96 369.48 C 588.99 368.55, 588.78 367.46, 588.23 365.12 C 587.67 362.77, 587.10 361.28, 586.19 357.74 C 585.28 354.20, 584.67 351.98, 583.68 347.42 C 582.70 342.85, 582.25 340.19, 581.28 334.91 C 580.31 329.63, 579.77 326.61, 578.85 321.00 C 577.92 315.40, 577.49 312.17, 576.66 306.87 C 575.84 301.57, 575.39 298.71, 574.73 294.52 C 574.08 290.33, 573.98 288.50, 573.38 285.92 C 572.77 283.34, 572.29 282.44, 571.72 281.62 C 571.16 280.81, 570.76 280.90, 570.56 281.86" style="stroke: black; fill: black;"/><path d="M 686.44,347.01 C 686.40 346.31, 686.18 345.47, 685.20 344.33 C 684.23 343.18, 683.49 342.33, 681.56 341.30 C 679.64 340.28, 678.33 339.52, 675.59 339.20 C 672.85 338.87, 671.06 338.98, 667.87 339.69 C 664.68 340.39, 662.80 341.12, 659.65 342.74 C 656.51 344.36, 654.69 345.50, 652.14 347.79 C 649.59 350.08, 648.24 351.55, 646.90 354.19 C 645.56 356.82, 645.24 358.45, 645.46 360.97 C 645.68 363.48, 646.34 364.88, 647.99 366.77 C 649.65 368.66, 651.08 369.49, 653.75 370.43 C 656.43 371.37, 658.21 371.55, 661.37 371.47 C 664.53 371.40, 666.38 371.08, 669.54 370.05 C 672.70 369.02, 674.38 368.10, 677.16 366.32 C 679.94 364.55, 681.33 363.31, 683.44 361.16 C 685.55 359.00, 686.50 357.56, 687.71 355.55 C 688.93 353.55, 689.08 352.25, 689.52 351.13 C 689.95 350.01, 689.66 349.70, 689.88 349.95 C 690.10 350.19, 690.00 350.93, 690.63 352.35 C 691.25 353.77, 691.66 355.04, 693.01 357.04 C 694.37 359.05, 695.46 360.46, 697.40 362.37 C 699.34 364.28, 700.57 365.29, 702.72 366.59 C 704.86 367.90, 706.03 368.38, 708.13 368.89 C 710.22 369.40, 711.27 369.49, 713.18 369.12 C 715.08 368.76, 716.03 368.30, 717.64 367.06 C 719.25 365.82, 720.01 364.79, 721.22 362.92 C 722.43 361.06, 722.99 359.57, 723.69 357.75 C 724.39 355.92, 724.37 354.70, 724.72 353.78 C 725.08 352.86, 724.98 352.72, 725.46 353.14 C 725.95 353.56, 726.21 354.43, 727.15 355.88 C 728.09 357.34, 728.72 358.64, 730.17 360.43 C 731.62 362.21, 732.67 363.35, 734.41 364.80 C 736.15 366.25, 737.13 366.91, 738.87 367.67 C 740.60 368.43, 741.44 368.56, 743.08 368.59 C 744.73 368.62, 745.48 368.52, 747.10 367.84 C 748.71 367.15, 749.52 366.55, 751.15 365.14 C 752.78 363.74, 753.71 362.65, 755.27 360.82 C 756.82 358.99, 757.55 357.68, 758.91 356.01 C 760.27 354.35, 760.85 353.42, 762.07 352.48 C 763.28 351.53, 763.83 351.21, 764.98 351.28 C 766.13 351.35, 766.58 351.83, 767.83 352.82 C 769.08 353.82, 769.72 354.82, 771.24 356.24 C 772.76 357.66, 773.68 358.64, 775.42 359.92 C 777.16 361.21, 778.14 361.86, 779.96 362.68 C 781.78 363.49, 782.73 363.80, 784.52 364.00 C 786.31 364.20, 787.23 364.10, 788.93 363.67 C 790.62 363.24, 791.44 362.77, 792.99 361.86 C 794.54 360.96, 795.29 360.25, 796.65 359.14 C 798.02 358.04, 798.68 357.25, 799.81 356.34 C 800.93 355.43, 801.32 354.95, 802.29 354.58 C 803.27 354.21, 803.63 354.17, 804.68 354.49 C 805.73 354.81, 806.22 355.29, 807.54 356.18 C 808.86 357.07, 809.61 357.74, 811.28 358.94 C 812.94 360.14, 813.93 360.95, 815.86 362.18 C 817.80 363.42, 819.02 364.22, 820.94 365.13 C 822.87 366.03, 824.43 366.61, 825.47 366.69 C 826.51 366.77, 826.73 366.36, 826.15 365.51 C 825.57 364.66, 824.22 363.71, 822.57 362.45 C 820.91 361.18, 819.72 360.45, 817.86 359.18 C 816.00 357.90, 815.01 357.20, 813.27 356.05 C 811.53 354.90, 810.76 354.26, 809.16 353.43 C 807.56 352.60, 806.80 352.17, 805.27 351.90 C 803.74 351.63, 802.98 351.71, 801.53 352.08 C 800.07 352.46, 799.39 352.90, 797.99 353.79 C 796.59 354.67, 795.86 355.43, 794.52 356.52 C 793.19 357.61, 792.58 358.34, 791.31 359.23 C 790.04 360.12, 789.46 360.57, 788.17 360.97 C 786.88 361.38, 786.24 361.48, 784.86 361.28 C 783.49 361.07, 782.77 360.78, 781.30 359.97 C 779.84 359.15, 779.07 358.48, 777.52 357.21 C 775.98 355.95, 775.19 354.99, 773.57 353.62 C 771.95 352.25, 771.14 351.31, 769.44 350.37 C 767.74 349.43, 766.84 348.96, 765.07 348.91 C 763.30 348.87, 762.31 349.19, 760.57 350.15 C 758.82 351.11, 757.98 352.06, 756.35 353.72 C 754.72 355.37, 753.93 356.63, 752.43 358.43 C 750.92 360.22, 750.13 361.30, 748.82 362.70 C 747.52 364.10, 747.02 364.74, 745.89 365.43 C 744.76 366.12, 744.31 366.21, 743.16 366.15 C 742.01 366.10, 741.42 365.95, 740.15 365.17 C 738.89 364.38, 738.19 363.68, 736.81 362.22 C 735.44 360.76, 734.70 359.56, 733.27 357.86 C 731.84 356.16, 731.08 355.00, 729.65 353.72 C 728.22 352.43, 727.45 351.73, 726.10 351.45 C 724.76 351.18, 724.09 351.40, 722.95 352.35 C 721.80 353.31, 721.32 354.47, 720.38 356.23 C 719.44 358.00, 719.16 359.43, 718.24 361.16 C 717.32 362.90, 716.90 363.82, 715.80 364.91 C 714.69 366.00, 714.08 366.35, 712.70 366.61 C 711.31 366.87, 710.51 366.76, 708.88 366.21 C 707.24 365.67, 706.26 365.19, 704.52 363.90 C 702.78 362.60, 701.82 361.56, 700.17 359.72 C 698.52 357.87, 697.70 356.48, 696.27 354.67 C 694.83 352.85, 694.22 351.84, 693.02 350.66 C 691.81 349.48, 691.28 348.93, 690.23 348.78 C 689.18 348.64, 688.79 348.94, 687.77 349.95 C 686.76 350.97, 686.48 352.06, 685.17 353.87 C 683.86 355.68, 683.13 357.00, 681.22 359.00 C 679.30 361.01, 678.10 362.25, 675.59 363.90 C 673.07 365.54, 671.50 366.35, 668.65 367.24 C 665.79 368.13, 664.09 368.28, 661.30 368.33 C 658.51 368.38, 656.98 368.16, 654.71 367.49 C 652.43 366.82, 651.27 366.32, 649.92 364.98 C 648.57 363.64, 648.06 362.68, 647.97 360.79 C 647.87 358.90, 648.25 357.72, 649.47 355.55 C 650.69 353.38, 651.75 351.96, 654.05 349.92 C 656.34 347.87, 658.06 346.74, 660.96 345.32 C 663.85 343.89, 665.67 343.33, 668.51 342.80 C 671.35 342.27, 672.85 342.36, 675.15 342.67 C 677.45 342.99, 678.39 343.63, 680.03 344.38 C 681.67 345.13, 682.26 345.73, 683.34 346.42 C 684.43 347.11, 684.82 347.71, 685.44 347.83 C 686.07 347.95, 686.49 347.71, 686.44 347.01" style="stroke: black; fill: black;"/><path d="M 908.79,290.45 C 908.60 290.95, 908.45 291.12, 908.74 292.67 C 909.04 294.22, 909.24 295.27, 910.28 298.20 C 911.31 301.13, 912.20 303.03, 913.91 307.33 C 915.61 311.64, 916.72 314.64, 918.79 319.71 C 920.86 324.79, 922.02 327.82, 924.25 332.73 C 926.47 337.64, 927.64 340.17, 929.90 344.28 C 932.17 348.40, 933.32 350.28, 935.56 353.30 C 937.80 356.32, 938.94 357.74, 941.10 359.37 C 943.26 361.00, 944.43 361.40, 946.36 361.44 C 948.28 361.48, 949.20 361.02, 950.75 359.59 C 952.30 358.16, 953.09 356.94, 954.11 354.30 C 955.13 351.66, 955.29 349.68, 955.86 346.40 C 956.43 343.13, 956.59 341.07, 956.94 337.92 C 957.30 334.78, 957.55 333.05, 957.62 330.69 C 957.69 328.33, 957.32 327.09, 957.28 326.14 C 957.23 325.19, 956.93 325.22, 957.38 325.92 C 957.83 326.61, 958.11 327.65, 959.53 329.60 C 960.96 331.55, 962.11 333.04, 964.49 335.68 C 966.87 338.31, 968.51 340.01, 971.42 342.79 C 974.34 345.57, 976.08 347.20, 979.08 349.58 C 982.08 351.96, 983.64 353.10, 986.44 354.69 C 989.23 356.28, 990.63 356.93, 993.08 357.53 C 995.53 358.13, 996.71 358.20, 998.69 357.68 C 1000.67 357.17, 1001.60 356.69, 1002.99 354.95 C 1004.38 353.20, 1005.05 351.94, 1005.64 348.97 C 1006.24 345.99, 1006.16 344.00, 1005.96 340.07 C 1005.76 336.14, 1005.44 333.72, 1004.63 329.33 C 1003.82 324.94, 1003.17 322.41, 1001.91 318.14 C 1000.65 313.86, 999.76 311.66, 998.31 307.95 C 996.87 304.24, 996.04 302.45, 994.69 299.60 C 993.34 296.74, 992.61 295.52, 991.55 293.69 C 990.49 291.86, 989.98 291.02, 989.37 290.45 C 988.77 289.87, 988.49 290.00, 988.53 290.83 C 988.58 291.67, 988.84 292.65, 989.59 294.63 C 990.35 296.61, 991.00 297.88, 992.33 300.71 C 993.65 303.54, 994.72 305.19, 996.23 308.79 C 997.73 312.40, 998.61 314.56, 999.83 318.75 C 1001.06 322.94, 1001.67 325.44, 1002.36 329.72 C 1003.05 334.00, 1003.26 336.42, 1003.29 340.15 C 1003.33 343.88, 1003.00 345.71, 1002.53 348.38 C 1002.07 351.06, 1001.85 352.08, 1000.98 353.51 C 1000.11 354.94, 999.62 355.22, 998.17 355.52 C 996.73 355.82, 995.85 355.64, 993.76 355.01 C 991.68 354.38, 990.38 353.83, 987.76 352.35 C 985.13 350.87, 983.54 349.90, 980.64 347.61 C 977.75 345.32, 976.04 343.70, 973.30 340.89 C 970.56 338.08, 969.18 336.25, 966.94 333.56 C 964.71 330.86, 963.87 329.20, 962.12 327.41 C 960.37 325.62, 959.46 324.96, 958.18 324.60 C 956.90 324.24, 956.44 324.47, 955.71 325.63 C 954.97 326.79, 954.90 328.00, 954.50 330.39 C 954.11 332.77, 954.13 334.46, 953.75 337.55 C 953.37 340.64, 953.18 342.70, 952.61 345.83 C 952.04 348.96, 951.62 350.76, 950.90 353.20 C 950.18 355.64, 949.91 356.75, 949.01 358.02 C 948.12 359.29, 947.73 359.67, 946.45 359.55 C 945.17 359.43, 944.46 358.95, 942.63 357.43 C 940.80 355.92, 939.50 354.79, 937.28 351.98 C 935.06 349.17, 933.81 347.37, 931.53 343.37 C 929.25 339.37, 928.07 336.86, 925.89 331.99 C 923.71 327.11, 922.55 324.09, 920.61 319.00 C 918.67 313.90, 917.63 310.89, 916.19 306.51 C 914.74 302.13, 914.42 300.04, 913.40 297.11 C 912.38 294.18, 911.81 293.25, 911.07 291.86 C 910.34 290.46, 910.18 290.42, 909.72 290.14 C 909.27 289.86, 908.99 289.94, 908.79 290.45" style="stroke: black; fill: black;"/><path d="M 1017.74,318.67 C 1017.95 319.63, 1018.65 320.64, 1019.82 322.66 C 1021.00 324.69, 1021.94 326.10, 1023.61 328.80 C 1025.29 331.49, 1026.45 333.33, 1028.21 336.15 C 1029.96 338.97, 1030.75 340.56, 1032.38 342.89 C 1034.02 345.22, 1034.79 346.25, 1036.37 347.82 C 1037.95 349.38, 1038.67 350.01, 1040.27 350.70 C 1041.87 351.40, 1042.73 351.56, 1044.36 351.29 C 1045.99 351.02, 1046.90 350.57, 1048.41 349.35 C 1049.93 348.13, 1050.69 347.09, 1051.93 345.19 C 1053.16 343.29, 1053.78 341.86, 1054.60 339.84 C 1055.43 337.82, 1055.61 336.40, 1056.03 335.09 C 1056.46 333.78, 1056.29 333.27, 1056.72 333.27 C 1057.15 333.27, 1057.28 333.88, 1058.18 335.08 C 1059.07 336.28, 1059.63 337.41, 1061.19 339.26 C 1062.75 341.12, 1063.80 342.53, 1065.97 344.37 C 1068.14 346.20, 1069.56 347.25, 1072.02 348.44 C 1074.48 349.62, 1075.83 350.09, 1078.27 350.29 C 1080.72 350.48, 1082.02 350.35, 1084.24 349.40 C 1086.46 348.45, 1087.65 347.73, 1089.38 345.53 C 1091.12 343.32, 1091.85 341.65, 1092.91 338.37 C 1093.98 335.10, 1094.27 332.96, 1094.71 329.16 C 1095.14 325.36, 1095.11 323.10, 1095.08 319.37 C 1095.04 315.64, 1094.90 313.61, 1094.53 310.51 C 1094.17 307.42, 1093.85 305.92, 1093.26 303.90 C 1092.68 301.89, 1092.17 301.15, 1091.61 300.44 C 1091.05 299.73, 1090.59 299.76, 1090.47 300.36 C 1090.35 300.96, 1090.29 301.66, 1090.99 303.43 C 1091.69 305.21, 1092.38 306.44, 1093.98 309.23 C 1095.58 312.01, 1096.80 313.78, 1098.99 317.34 C 1101.18 320.89, 1102.48 323.15, 1104.93 327.00 C 1107.39 330.85, 1108.77 332.98, 1111.24 336.59 C 1113.72 340.20, 1114.97 342.09, 1117.32 345.05 C 1119.66 348.00, 1120.77 349.42, 1122.95 351.39 C 1125.14 353.35, 1126.25 354.05, 1128.22 354.87 C 1130.20 355.68, 1131.14 355.86, 1132.84 355.46 C 1134.54 355.06, 1135.46 354.52, 1136.72 352.86 C 1137.99 351.20, 1138.51 349.86, 1139.17 347.17 C 1139.84 344.47, 1139.83 342.64, 1140.05 339.38 C 1140.28 336.12, 1140.27 334.15, 1140.32 330.86 C 1140.37 327.58, 1140.33 325.75, 1140.29 322.97 C 1140.25 320.18, 1140.08 318.87, 1140.14 316.92 C 1140.20 314.98, 1140.24 314.24, 1140.58 313.25 C 1140.92 312.25, 1141.03 312.05, 1141.85 311.96 C 1142.68 311.87, 1143.20 312.13, 1144.69 312.80 C 1146.18 313.46, 1147.15 314.03, 1149.30 315.28 C 1151.46 316.53, 1152.83 317.30, 1155.47 319.05 C 1158.11 320.80, 1159.59 321.97, 1162.51 324.04 C 1165.42 326.12, 1167.03 327.37, 1170.05 329.42 C 1173.07 331.48, 1174.64 332.58, 1177.61 334.33 C 1180.58 336.08, 1182.09 337.00, 1184.92 338.17 C 1187.74 339.34, 1189.21 339.83, 1191.74 340.19 C 1194.27 340.55, 1195.51 340.53, 1197.57 339.97 C 1199.63 339.42, 1200.60 338.87, 1202.04 337.42 C 1203.48 335.97, 1204.13 334.88, 1204.77 332.73 C 1205.42 330.59, 1205.56 329.14, 1205.26 326.68 C 1204.97 324.22, 1204.49 322.72, 1203.28 320.42 C 1202.07 318.12, 1201.17 316.89, 1199.22 315.17 C 1197.26 313.46, 1195.86 312.68, 1193.49 311.83 C 1191.11 310.98, 1189.66 310.77, 1187.35 310.93 C 1185.04 311.08, 1183.71 311.43, 1181.93 312.60 C 1180.14 313.77, 1179.23 314.75, 1178.43 316.79 C 1177.62 318.82, 1177.42 320.22, 1177.91 322.78 C 1178.41 325.34, 1179.08 326.93, 1180.90 329.60 C 1182.73 332.27, 1184.16 333.75, 1187.03 336.12 C 1189.90 338.50, 1191.71 339.68, 1195.26 341.49 C 1198.82 343.31, 1200.89 344.09, 1204.81 345.19 C 1208.72 346.30, 1210.90 346.68, 1214.82 347.01 C 1218.75 347.34, 1220.78 347.33, 1224.42 346.86 C 1228.07 346.39, 1229.88 345.87, 1233.07 344.66 C 1236.25 343.45, 1237.79 342.58, 1240.37 340.82 C 1242.94 339.05, 1244.14 337.85, 1245.96 335.84 C 1247.77 333.84, 1248.45 332.47, 1249.44 330.79 C 1250.44 329.11, 1250.57 328.23, 1250.94 327.45 C 1251.30 326.66, 1251.07 326.54, 1251.28 326.87 C 1251.48 327.20, 1251.34 327.79, 1251.97 329.09 C 1252.60 330.38, 1253.07 331.53, 1254.42 333.34 C 1255.78 335.15, 1256.85 336.28, 1258.73 338.13 C 1260.62 339.98, 1261.73 341.00, 1263.85 342.59 C 1265.97 344.17, 1267.17 345.01, 1269.34 346.08 C 1271.50 347.14, 1272.72 347.64, 1274.67 347.93 C 1276.62 348.22, 1278.19 347.85, 1279.09 347.53 C 1279.99 347.20, 1279.93 346.72, 1279.17 346.29 C 1278.41 345.86, 1276.96 345.98, 1275.29 345.38 C 1273.62 344.79, 1272.68 344.41, 1270.82 343.32 C 1268.95 342.22, 1267.83 341.48, 1265.95 339.91 C 1264.08 338.35, 1263.12 337.31, 1261.44 335.50 C 1259.76 333.68, 1258.95 332.50, 1257.54 330.85 C 1256.14 329.20, 1255.54 328.30, 1254.40 327.25 C 1253.26 326.21, 1252.82 325.83, 1251.84 325.62 C 1250.87 325.41, 1250.49 325.50, 1249.54 326.21 C 1248.58 326.92, 1248.23 327.66, 1247.06 329.18 C 1245.90 330.70, 1245.36 331.94, 1243.70 333.81 C 1242.03 335.69, 1241.06 336.84, 1238.75 338.53 C 1236.44 340.23, 1235.07 341.11, 1232.14 342.30 C 1229.21 343.50, 1227.53 344.02, 1224.11 344.50 C 1220.68 344.98, 1218.75 345.02, 1215.01 344.72 C 1211.28 344.42, 1209.16 344.06, 1205.44 342.98 C 1201.71 341.91, 1199.71 341.12, 1196.39 339.34 C 1193.06 337.56, 1191.37 336.36, 1188.80 334.06 C 1186.22 331.77, 1185.09 330.23, 1183.50 327.85 C 1181.92 325.46, 1181.39 324.16, 1180.87 322.13 C 1180.35 320.10, 1180.42 319.17, 1180.92 317.72 C 1181.41 316.27, 1182.04 315.65, 1183.36 314.88 C 1184.67 314.11, 1185.67 313.90, 1187.48 313.87 C 1189.29 313.85, 1190.48 314.01, 1192.41 314.75 C 1194.34 315.48, 1195.52 316.11, 1197.11 317.55 C 1198.71 318.98, 1199.40 320.01, 1200.38 321.92 C 1201.36 323.84, 1201.70 325.10, 1202.00 327.12 C 1202.30 329.13, 1202.24 330.27, 1201.88 331.98 C 1201.52 333.69, 1201.16 334.54, 1200.18 335.65 C 1199.20 336.77, 1198.57 337.18, 1196.97 337.54 C 1195.37 337.90, 1194.38 337.85, 1192.18 337.45 C 1189.99 337.05, 1188.65 336.62, 1186.00 335.54 C 1183.35 334.46, 1181.82 333.71, 1178.92 332.06 C 1176.02 330.41, 1174.46 329.34, 1171.51 327.30 C 1168.55 325.25, 1166.98 324.00, 1164.13 321.83 C 1161.29 319.67, 1159.90 318.40, 1157.29 316.46 C 1154.69 314.52, 1153.43 313.45, 1151.09 312.14 C 1148.75 310.83, 1147.55 310.35, 1145.60 309.92 C 1143.65 309.50, 1142.72 309.54, 1141.35 310.02 C 1139.97 310.51, 1139.51 311.02, 1138.72 312.35 C 1137.94 313.68, 1137.76 314.54, 1137.43 316.67 C 1137.11 318.79, 1137.13 320.14, 1137.10 322.97 C 1137.07 325.80, 1137.33 327.58, 1137.27 330.81 C 1137.21 334.04, 1137.10 335.99, 1136.80 339.11 C 1136.50 342.23, 1136.22 343.95, 1135.76 346.42 C 1135.30 348.89, 1135.18 350.04, 1134.50 351.46 C 1133.83 352.88, 1133.43 353.26, 1132.37 353.52 C 1131.32 353.78, 1130.73 353.59, 1129.22 352.76 C 1127.70 351.93, 1126.81 351.20, 1124.79 349.36 C 1122.76 347.53, 1121.46 346.38, 1119.10 343.59 C 1116.75 340.79, 1115.46 338.93, 1113.01 335.38 C 1110.55 331.82, 1109.17 329.69, 1106.82 325.82 C 1104.47 321.96, 1103.20 319.70, 1101.25 316.04 C 1099.30 312.38, 1098.57 310.35, 1097.07 307.52 C 1095.57 304.69, 1094.93 303.42, 1093.77 301.87 C 1092.60 300.33, 1091.96 300.01, 1091.25 299.80 C 1090.53 299.58, 1090.32 299.86, 1090.19 300.80 C 1090.06 301.74, 1090.28 302.48, 1090.58 304.49 C 1090.87 306.50, 1091.29 307.88, 1091.67 310.86 C 1092.04 313.85, 1092.38 315.82, 1092.45 319.41 C 1092.53 323.01, 1092.51 325.23, 1092.04 328.84 C 1091.58 332.45, 1091.15 334.48, 1090.14 337.45 C 1089.13 340.43, 1088.39 341.81, 1087.00 343.72 C 1085.61 345.62, 1084.87 346.22, 1083.18 346.98 C 1081.50 347.74, 1080.50 347.80, 1078.58 347.51 C 1076.65 347.23, 1075.57 346.75, 1073.55 345.55 C 1071.54 344.35, 1070.41 343.29, 1068.50 341.51 C 1066.59 339.74, 1065.70 338.38, 1064.01 336.68 C 1062.33 334.99, 1061.55 334.03, 1060.06 333.04 C 1058.58 332.05, 1057.88 331.59, 1056.60 331.72 C 1055.31 331.86, 1054.73 332.40, 1053.64 333.71 C 1052.55 335.02, 1052.12 336.35, 1051.15 338.27 C 1050.18 340.19, 1049.76 341.55, 1048.80 343.33 C 1047.85 345.11, 1047.34 346.04, 1046.36 347.17 C 1045.37 348.31, 1044.89 348.72, 1043.87 349.01 C 1042.85 349.30, 1042.37 349.24, 1041.26 348.64 C 1040.15 348.04, 1039.58 347.51, 1038.33 346.01 C 1037.08 344.50, 1036.50 343.42, 1035.01 341.12 C 1033.52 338.82, 1032.62 337.31, 1030.90 334.49 C 1029.18 331.67, 1028.15 329.73, 1026.42 327.02 C 1024.68 324.32, 1023.76 322.81, 1022.23 320.98 C 1020.70 319.15, 1019.66 318.33, 1018.76 317.87 C 1017.86 317.41, 1017.53 317.71, 1017.74 318.67" style="stroke: black; fill: black;"/><path d="M 1247.47,298.55 C 1247.72 298.82, 1248.33 298.73, 1248.49 298.39 C 1248.65 298.05, 1248.50 297.12, 1248.25 296.85 C 1247.99 296.57, 1247.38 296.67, 1247.22 297.01 C 1247.07 297.35, 1247.21 298.27, 1247.47 298.55" style="stroke: black; fill: black;"/><path d="M 1310.46,348.14 C 1310.70 348.56, 1311.08 348.94, 1311.35 348.90 C 1311.63 348.85, 1311.89 348.46, 1311.82 347.93 C 1311.75 347.39, 1311.31 346.63, 1311.00 346.21 C 1310.68 345.79, 1310.42 345.71, 1310.26 345.83 C 1310.10 345.94, 1310.16 346.31, 1310.20 346.77 C 1310.24 347.24, 1310.23 347.71, 1310.46 348.14" style="stroke: black; fill: black;"/></svg>