<svg xmlns="http://www.w3.org/2000/svg" id="canvas" viewBox="263.667 346.963 1077.100 130.851">
  <style>
    path {
      stroke-dasharray: 2000;
      stroke-dashoffset: 2000;
      -webkit-animation: dash 5s ease 1 forwards;
      animation: dash 5s ease 1 forwards;
    }
    
    @-webkit-keyframes dash {
      to {
        stroke-dashoffset: 0;
      }
    }
    @keyframes dash {
      to {
        stroke-dashoffset: 0;
      }
    }
  </style>
  <g>
    <path d="M 266.78,395.86 C 267.03 396.37, 267.51 396.68, 268.28 396.92 C 269.06 397.15, 269.55 397.07, 270.66 397.02 C 271.78 396.97, 272.40 396.96, 273.84 396.67 C 275.28 396.38, 276.12 396.12, 277.88 395.58 C 279.64 395.04, 280.63 394.71, 282.64 393.98 C 284.65 393.25, 285.73 392.85, 287.93 391.93 C 290.14 391.01, 291.31 390.47, 293.65 389.37 C 295.99 388.27, 297.27 387.62, 299.62 386.43 C 301.96 385.24, 303.14 384.63, 305.37 383.43 C 307.60 382.24, 308.66 381.63, 310.77 380.45 C 312.87 379.28, 313.95 378.72, 315.91 377.57 C 317.87 376.41, 318.81 375.79, 320.57 374.68 C 322.33 373.56, 323.19 372.94, 324.73 371.98 C 326.27 371.03, 327.08 370.57, 328.26 369.90 C 329.44 369.23, 329.87 368.88, 330.62 368.63 C 331.37 368.37, 331.63 368.34, 332.02 368.61 C 332.41 368.89, 332.50 369.08, 332.57 370.00 C 332.63 370.93, 332.48 371.53, 332.34 373.23 C 332.20 374.93, 332.11 376.06, 331.86 378.51 C 331.60 380.96, 331.52 382.36, 331.07 385.47 C 330.61 388.58, 330.32 390.38, 329.57 394.04 C 328.82 397.70, 328.30 399.86, 327.34 403.78 C 326.37 407.70, 325.78 409.72, 324.76 413.62 C 323.73 417.51, 323.21 419.61, 322.22 423.25 C 321.24 426.88, 320.80 428.63, 319.83 431.81 C 318.85 435.00, 318.25 436.51, 317.36 439.15 C 316.48 441.78, 316.12 443.02, 315.39 444.99 C 314.65 446.96, 314.26 447.74, 313.67 448.99 C 313.07 450.24, 312.75 450.68, 312.41 451.25 C 312.06 451.82, 312.00 451.95, 311.92 451.83 C 311.83 451.71, 311.93 451.51, 311.99 450.65 C 312.05 449.78, 312.08 449.06, 312.22 447.51 C 312.36 445.96, 312.32 444.89, 312.68 442.90 C 313.04 440.90, 313.22 439.71, 314.03 437.52 C 314.84 435.33, 315.45 434.15, 316.72 431.94 C 318.00 429.72, 318.80 428.56, 320.41 426.45 C 322.02 424.34, 322.94 423.24, 324.78 421.40 C 326.63 419.55, 327.63 418.72, 329.63 417.22 C 331.63 415.71, 332.64 415.10, 334.76 413.89 C 336.88 412.68, 338.03 412.16, 340.23 411.15 C 342.43 410.13, 343.59 409.64, 345.78 408.81 C 347.97 407.98, 349.04 407.67, 351.16 406.99 C 353.29 406.30, 354.35 406.00, 356.39 405.38 C 358.43 404.77, 359.43 404.55, 361.36 403.92 C 363.28 403.28, 364.22 402.95, 366.01 402.19 C 367.79 401.44, 368.61 401.15, 370.30 400.13 C 371.99 399.11, 372.91 398.48, 374.44 397.10 C 375.98 395.72, 376.66 394.91, 377.96 393.22 C 379.26 391.53, 379.97 390.65, 380.95 388.65 C 381.93 386.65, 382.35 385.42, 382.85 383.23 C 383.35 381.04, 383.43 379.85, 383.47 377.70 C 383.50 375.55, 383.43 374.38, 383.04 372.48 C 382.65 370.57, 382.31 369.63, 381.52 368.18 C 380.73 366.73, 380.28 366.09, 379.08 365.21 C 377.88 364.33, 377.05 363.77, 375.54 363.77 C 374.03 363.78, 373.12 364.10, 371.52 365.26 C 369.92 366.41, 369.10 367.31, 367.56 369.56 C 366.01 371.80, 365.26 373.33, 363.79 376.49 C 362.33 379.64, 361.55 381.64, 360.21 385.34 C 358.87 389.03, 358.19 391.13, 357.09 394.98 C 355.99 398.83, 355.48 400.80, 354.72 404.60 C 353.95 408.39, 353.74 410.34, 353.27 413.95 C 352.80 417.57, 352.67 419.41, 352.37 422.66 C 352.07 425.92, 351.84 427.47, 351.76 430.24 C 351.67 433.02, 351.71 434.29, 351.95 436.54 C 352.18 438.80, 352.41 439.83, 352.94 441.52 C 353.48 443.22, 353.80 443.91, 354.62 445.03 C 355.43 446.16, 355.97 446.60, 357.03 447.16 C 358.09 447.72, 358.85 448.03, 359.90 447.83 C 360.95 447.63, 361.96 446.84, 362.27 446.17 C 362.59 445.51, 362.05 444.75, 361.48 444.51 C 360.91 444.27, 360.07 444.90, 359.43 444.98 C 358.79 445.06, 358.77 445.20, 358.27 444.90 C 357.76 444.61, 357.41 444.34, 356.91 443.50 C 356.42 442.66, 356.16 442.16, 355.80 440.71 C 355.43 439.26, 355.23 438.34, 355.09 436.26 C 354.95 434.19, 355.02 433.00, 355.07 430.33 C 355.13 427.65, 355.17 426.10, 355.35 422.89 C 355.54 419.68, 355.60 417.83, 355.99 414.28 C 356.37 410.72, 356.56 408.82, 357.29 405.11 C 358.03 401.40, 358.53 399.48, 359.67 395.74 C 360.80 392.00, 361.51 389.93, 362.96 386.39 C 364.41 382.86, 365.31 380.97, 366.90 378.05 C 368.49 375.14, 369.53 373.88, 370.90 371.82 C 372.27 369.77, 372.80 368.87, 373.75 367.78 C 374.69 366.69, 374.94 366.46, 375.64 366.38 C 376.34 366.30, 376.63 366.75, 377.24 367.39 C 377.85 368.03, 378.20 368.43, 378.68 369.57 C 379.15 370.71, 379.38 371.48, 379.62 373.08 C 379.85 374.69, 379.91 375.74, 379.85 377.60 C 379.78 379.47, 379.72 380.52, 379.29 382.41 C 378.86 384.30, 378.53 385.34, 377.69 387.06 C 376.85 388.79, 376.23 389.55, 375.10 391.03 C 373.97 392.52, 373.35 393.24, 372.03 394.48 C 370.72 395.72, 369.98 396.31, 368.51 397.24 C 367.05 398.17, 366.36 398.44, 364.72 399.12 C 363.07 399.80, 362.16 400.06, 360.30 400.65 C 358.43 401.24, 357.44 401.47, 355.40 402.08 C 353.36 402.69, 352.28 402.99, 350.11 403.68 C 347.93 404.37, 346.81 404.66, 344.53 405.52 C 342.26 406.37, 341.04 406.86, 338.74 407.94 C 336.44 409.02, 335.28 409.60, 333.04 410.90 C 330.80 412.20, 329.71 412.84, 327.56 414.42 C 325.40 416.01, 324.27 416.87, 322.25 418.82 C 320.23 420.77, 319.23 421.93, 317.47 424.17 C 315.71 426.41, 314.87 427.63, 313.45 430.02 C 312.03 432.41, 311.35 433.69, 310.37 436.10 C 309.39 438.51, 309.03 439.82, 308.56 442.09 C 308.08 444.36, 307.92 445.55, 308.00 447.44 C 308.08 449.33, 308.31 450.33, 308.97 451.53 C 309.63 452.73, 310.32 453.16, 311.31 453.44 C 312.30 453.72, 312.94 453.55, 313.91 452.94 C 314.88 452.33, 315.28 451.76, 316.16 450.40 C 317.04 449.05, 317.43 448.21, 318.30 446.16 C 319.18 444.12, 319.66 442.89, 320.51 440.17 C 321.37 437.46, 321.74 435.85, 322.60 432.60 C 323.45 429.35, 323.85 427.58, 324.79 423.92 C 325.72 420.25, 326.23 418.17, 327.27 414.28 C 328.30 410.39, 328.91 408.37, 329.95 404.45 C 330.99 400.53, 331.56 398.37, 332.48 394.70 C 333.40 391.03, 333.87 389.25, 334.55 386.11 C 335.23 382.96, 335.56 381.54, 335.89 378.98 C 336.23 376.42, 336.28 375.27, 336.20 373.31 C 336.13 371.34, 336.12 370.52, 335.54 369.17 C 334.96 367.81, 334.39 367.19, 333.32 366.55 C 332.24 365.91, 331.47 365.87, 330.17 365.96 C 328.88 366.05, 328.29 366.38, 326.84 366.99 C 325.39 367.60, 324.56 368.06, 322.94 369.01 C 321.31 369.96, 320.47 370.63, 318.71 371.74 C 316.96 372.86, 316.08 373.45, 314.15 374.58 C 312.23 375.71, 311.17 376.26, 309.08 377.40 C 307.00 378.53, 305.94 379.13, 303.72 380.27 C 301.49 381.40, 300.29 381.94, 297.96 383.07 C 295.62 384.20, 294.33 384.85, 292.03 385.91 C 289.74 386.98, 288.62 387.53, 286.48 388.40 C 284.34 389.27, 283.29 389.61, 281.34 390.27 C 279.39 390.93, 278.39 391.23, 276.72 391.72 C 275.05 392.21, 274.31 392.44, 273.00 392.74 C 271.69 393.04, 271.13 393.01, 270.19 393.22 C 269.24 393.43, 268.92 393.55, 268.29 393.78 C 267.66 394.01, 267.33 393.96, 267.03 394.37 C 266.73 394.79, 266.53 395.35, 266.78 395.86" stroke-linecap="null" stroke-linejoin="null" stroke-dasharray="null" stroke-width="5" stroke="#000000" fill="none"/>
    <path d="M 381.73,436.78 C 382.38 437.06, 383.10 437.12, 384.55 436.83 C 386.01 436.54, 386.99 436.21, 389.01 435.31 C 391.02 434.42, 392.34 433.74, 394.64 432.36 C 396.93 430.99, 398.18 430.14, 400.49 428.44 C 402.80 426.74, 404.05 425.69, 406.17 423.87 C 408.28 422.05, 409.36 421.17, 411.06 419.34 C 412.75 417.51, 413.56 416.52, 414.65 414.71 C 415.73 412.90, 416.17 411.95, 416.47 410.27 C 416.76 408.59, 416.72 407.69, 416.11 406.30 C 415.50 404.91, 414.89 404.16, 413.40 403.33 C 411.91 402.50, 410.82 402.14, 408.65 402.16 C 406.49 402.18, 405.11 402.39, 402.59 403.43 C 400.08 404.47, 398.60 405.40, 396.09 407.37 C 393.58 409.34, 392.30 410.70, 390.04 413.29 C 387.77 415.89, 386.54 417.44, 384.78 420.35 C 383.03 423.25, 382.12 424.90, 381.25 427.83 C 380.39 430.77, 380.28 432.34, 380.46 435.03 C 380.65 437.72, 381.01 439.08, 382.18 441.29 C 383.34 443.50, 384.22 444.53, 386.29 446.06 C 388.37 447.59, 389.77 448.20, 392.55 448.93 C 395.34 449.67, 397.06 449.84, 400.22 449.73 C 403.38 449.62, 405.07 449.34, 408.35 448.38 C 411.64 447.41, 413.44 446.64, 416.66 444.91 C 419.88 443.18, 421.44 442.09, 424.46 439.71 C 427.47 437.33, 428.99 435.97, 431.73 433.02 C 434.48 430.07, 435.69 428.31, 438.18 424.95 C 440.66 421.60, 441.94 419.82, 444.16 416.25 C 446.38 412.69, 447.42 410.90, 449.28 407.14 C 451.14 403.39, 451.87 401.31, 453.47 397.48 C 455.07 393.65, 455.97 391.63, 457.27 388.00 C 458.56 384.36, 459.16 382.58, 459.95 379.31 C 460.75 376.04, 461.03 374.33, 461.25 371.65 C 461.47 368.97, 461.40 367.78, 461.06 365.90 C 460.72 364.03, 460.42 363.31, 459.55 362.26 C 458.68 361.21, 458.05 360.64, 456.71 360.63 C 455.38 360.62, 454.47 360.88, 452.89 362.20 C 451.30 363.52, 450.37 364.69, 448.79 367.25 C 447.21 369.82, 446.52 371.55, 444.98 375.02 C 443.44 378.50, 442.56 380.64, 441.09 384.64 C 439.62 388.64, 438.85 390.91, 437.63 395.01 C 436.41 399.11, 435.80 401.25, 434.98 405.13 C 434.16 409.01, 433.82 410.98, 433.51 414.43 C 433.21 417.89, 433.18 419.49, 433.44 422.40 C 433.70 425.31, 434.05 426.67, 434.83 428.99 C 435.62 431.32, 436.16 432.31, 437.38 434.02 C 438.60 435.72, 439.30 436.54, 440.92 437.52 C 442.54 438.51, 443.51 438.88, 445.49 438.94 C 447.46 439.01, 448.57 438.87, 450.79 437.85 C 453.01 436.84, 454.23 436.02, 456.59 433.86 C 458.95 431.69, 460.10 430.18, 462.60 427.02 C 465.10 423.86, 466.44 421.93, 469.09 418.05 C 471.75 414.16, 473.23 411.88, 475.87 407.60 C 478.50 403.32, 479.86 400.92, 482.26 396.63 C 484.65 392.35, 485.82 390.11, 487.86 386.20 C 489.90 382.29, 490.94 380.36, 492.45 377.08 C 493.95 373.80, 494.83 372.11, 495.37 369.79 C 495.90 367.47, 495.77 366.35, 495.12 365.48 C 494.46 364.61, 493.55 364.49, 492.10 365.43 C 490.65 366.38, 489.54 367.51, 487.86 370.21 C 486.17 372.90, 485.30 375.05, 483.66 378.90 C 482.03 382.74, 481.11 385.15, 479.67 389.44 C 478.23 393.72, 477.48 396.05, 476.44 400.31 C 475.41 404.57, 474.98 406.78, 474.49 410.74 C 474.00 414.69, 473.90 416.62, 473.98 420.08 C 474.07 423.55, 474.18 425.25, 474.92 428.05 C 475.66 430.85, 476.34 432.07, 477.67 434.07 C 479.00 436.07, 479.78 436.95, 481.58 438.06 C 483.38 439.18, 484.56 439.49, 486.66 439.62 C 488.77 439.76, 489.87 439.56, 492.11 438.74 C 494.35 437.92, 495.61 437.19, 497.85 435.53 C 500.09 433.87, 501.14 432.69, 503.31 430.44 C 505.49 428.18, 506.63 426.72, 508.71 424.27 C 510.79 421.81, 511.99 420.46, 513.71 418.15 C 515.44 415.83, 516.14 414.54, 517.34 412.68 C 518.54 410.81, 518.98 410.03, 519.70 408.80 C 520.42 407.57, 520.74 407.21, 520.94 406.52 C 521.14 405.83, 521.02 405.53, 520.70 405.33 C 520.38 405.13, 519.88 405.17, 519.36 405.51 C 518.85 405.85, 518.61 406.14, 518.13 407.04 C 517.65 407.95, 517.38 408.59, 516.97 410.04 C 516.55 411.50, 516.32 412.56, 516.05 414.34 C 515.79 416.12, 515.65 417.14, 515.64 418.96 C 515.64 420.78, 515.59 421.78, 516.01 423.44 C 516.42 425.10, 516.79 425.96, 517.73 427.26 C 518.67 428.55, 519.30 429.12, 520.72 429.91 C 522.15 430.71, 523.01 431.05, 524.84 431.22 C 526.66 431.39, 527.83 431.30, 529.85 430.76 C 531.87 430.23, 532.97 429.65, 534.94 428.55 C 536.90 427.46, 537.87 426.82, 539.67 425.28 C 541.47 423.74, 542.47 422.74, 543.94 420.86 C 545.40 418.97, 546.03 417.86, 546.99 415.86 C 547.96 413.85, 548.43 412.80, 548.75 410.82 C 549.07 408.84, 549.13 407.75, 548.60 405.97 C 548.06 404.19, 547.49 403.24, 546.08 401.93 C 544.67 400.61, 543.64 400.05, 541.54 399.38 C 539.43 398.70, 538.04 398.49, 535.56 398.54 C 533.08 398.58, 531.64 398.92, 529.13 399.61 C 526.62 400.31, 525.19 400.84, 523.01 402.01 C 520.84 403.18, 519.69 403.95, 518.27 405.45 C 516.86 406.96, 516.26 407.92, 515.94 409.54 C 515.63 411.16, 515.80 412.15, 516.71 413.55 C 517.62 414.95, 518.54 415.66, 520.48 416.56 C 522.43 417.46, 523.98 417.80, 526.43 418.05 C 528.89 418.29, 530.62 418.06, 532.75 417.78 C 534.87 417.50, 536.20 417.16, 537.06 416.65 C 537.92 416.14, 537.91 415.74, 537.06 415.23 C 536.21 414.72, 534.84 414.43, 532.80 414.09 C 530.76 413.75, 529.10 413.73, 526.87 413.52 C 524.65 413.31, 523.31 413.35, 521.67 413.04 C 520.04 412.72, 519.37 412.52, 518.71 411.95 C 518.05 411.39, 518.00 411.02, 518.36 410.21 C 518.72 409.39, 519.24 408.85, 520.51 407.89 C 521.78 406.92, 522.78 406.28, 524.71 405.38 C 526.64 404.49, 527.97 404.00, 530.17 403.40 C 532.37 402.81, 533.62 402.52, 535.70 402.42 C 537.77 402.31, 538.89 402.48, 540.56 402.86 C 542.23 403.24, 543.00 403.52, 544.04 404.30 C 545.07 405.09, 545.43 405.61, 545.73 406.78 C 546.04 407.96, 545.95 408.68, 545.57 410.17 C 545.18 411.66, 544.72 412.56, 543.81 414.23 C 542.90 415.91, 542.32 416.91, 541.01 418.54 C 539.69 420.18, 538.82 421.08, 537.24 422.41 C 535.65 423.75, 534.77 424.29, 533.09 425.22 C 531.40 426.15, 530.42 426.56, 528.80 427.06 C 527.19 427.56, 526.33 427.70, 525.01 427.72 C 523.69 427.73, 523.13 427.58, 522.19 427.13 C 521.24 426.68, 520.86 426.34, 520.29 425.47 C 519.72 424.60, 519.51 424.03, 519.35 422.77 C 519.18 421.52, 519.30 420.70, 519.48 419.18 C 519.66 417.66, 519.88 416.73, 520.26 415.16 C 520.65 413.58, 521.03 412.68, 521.41 411.28 C 521.79 409.88, 522.10 409.21, 522.16 408.15 C 522.23 407.09, 522.04 406.61, 521.72 405.97 C 521.39 405.34, 521.04 405.11, 520.56 404.98 C 520.07 404.84, 519.92 404.86, 519.29 405.30 C 518.66 405.73, 518.32 406.06, 517.39 407.15 C 516.45 408.25, 515.93 409.02, 514.61 410.78 C 513.30 412.54, 512.52 413.71, 510.80 415.95 C 509.09 418.20, 508.07 419.63, 506.05 422.02 C 504.03 424.40, 502.81 425.78, 500.71 427.88 C 498.61 429.97, 497.53 430.96, 495.55 432.49 C 493.57 434.02, 492.55 434.71, 490.80 435.53 C 489.04 436.35, 488.30 436.56, 486.76 436.58 C 485.22 436.60, 484.42 436.44, 483.11 435.61 C 481.79 434.79, 481.21 434.13, 480.18 432.46 C 479.16 430.78, 478.67 429.73, 477.98 427.23 C 477.30 424.73, 476.96 423.20, 476.76 419.96 C 476.56 416.72, 476.57 414.84, 476.98 411.02 C 477.38 407.21, 477.77 405.03, 478.79 400.89 C 479.81 396.74, 480.55 394.43, 482.09 390.30 C 483.64 386.16, 484.69 383.84, 486.51 380.21 C 488.33 376.59, 489.72 374.81, 491.18 372.17 C 492.64 369.53, 493.21 368.29, 493.81 367.02 C 494.41 365.74, 494.41 365.41, 494.17 365.79 C 493.93 366.17, 493.46 366.89, 492.62 368.93 C 491.78 370.97, 491.33 372.75, 489.98 376.00 C 488.62 379.25, 487.75 381.26, 485.83 385.18 C 483.91 389.09, 482.75 391.34, 480.38 395.59 C 478.02 399.84, 476.66 402.23, 474.00 406.44 C 471.35 410.66, 469.84 412.91, 467.12 416.65 C 464.40 420.40, 462.98 422.28, 460.40 425.19 C 457.83 428.10, 456.46 429.29, 454.23 431.21 C 452.00 433.12, 451.00 433.81, 449.25 434.76 C 447.51 435.71, 446.85 435.91, 445.49 435.96 C 444.14 436.02, 443.59 435.79, 442.47 435.05 C 441.34 434.32, 440.81 433.69, 439.88 432.29 C 438.94 430.88, 438.43 430.06, 437.78 428.02 C 437.13 425.98, 436.91 424.76, 436.62 422.08 C 436.32 419.40, 436.12 417.92, 436.30 414.63 C 436.47 411.35, 436.74 409.42, 437.50 405.65 C 438.25 401.87, 438.83 399.75, 440.05 395.74 C 441.27 391.73, 442.05 389.47, 443.61 385.61 C 445.17 381.74, 446.12 379.66, 447.85 376.42 C 449.58 373.19, 450.75 371.81, 452.27 369.44 C 453.79 367.07, 454.51 365.97, 455.45 364.60 C 456.38 363.22, 456.50 362.82, 456.96 362.58 C 457.42 362.35, 457.48 362.68, 457.74 363.41 C 458.00 364.14, 458.20 364.63, 458.26 366.22 C 458.32 367.81, 458.25 368.88, 458.02 371.36 C 457.78 373.85, 457.75 375.51, 457.10 378.67 C 456.46 381.82, 455.97 383.57, 454.79 387.14 C 453.60 390.72, 452.72 392.76, 451.19 396.54 C 449.65 400.33, 448.94 402.39, 447.12 406.07 C 445.30 409.76, 444.29 411.49, 442.10 414.96 C 439.91 418.44, 438.63 420.20, 436.18 423.46 C 433.73 426.72, 432.53 428.44, 429.85 431.25 C 427.17 434.07, 425.69 435.34, 422.78 437.55 C 419.88 439.76, 418.36 440.77, 415.31 442.32 C 412.25 443.88, 410.54 444.53, 407.51 445.32 C 404.48 446.10, 402.96 446.22, 400.14 446.24 C 397.33 446.26, 395.83 445.98, 393.43 445.42 C 391.03 444.85, 389.86 444.51, 388.15 443.40 C 386.44 442.29, 385.78 441.57, 384.88 439.86 C 383.97 438.15, 383.70 437.07, 383.62 434.86 C 383.54 432.64, 383.69 431.36, 384.47 428.80 C 385.26 426.23, 385.95 424.68, 387.56 422.03 C 389.17 419.37, 390.37 417.86, 392.53 415.52 C 394.68 413.19, 396.01 412.03, 398.33 410.34 C 400.66 408.66, 402.04 408.01, 404.14 407.10 C 406.25 406.19, 407.27 406.01, 408.88 405.80 C 410.48 405.59, 411.16 405.76, 412.15 406.06 C 413.13 406.37, 413.48 406.61, 413.79 407.32 C 414.10 408.03, 414.07 408.49, 413.69 409.61 C 413.32 410.74, 412.95 411.49, 411.91 412.95 C 410.88 414.40, 410.16 415.29, 408.54 416.90 C 406.91 418.51, 405.84 419.33, 403.77 420.99 C 401.70 422.65, 400.45 423.65, 398.19 425.20 C 395.93 426.74, 394.70 427.42, 392.48 428.70 C 390.27 429.97, 388.94 430.52, 387.12 431.56 C 385.29 432.60, 384.52 433.12, 383.36 433.90 C 382.20 434.67, 381.65 434.85, 381.32 435.43 C 380.99 436.00, 381.08 436.50, 381.73 436.78" stroke-linecap="null" stroke-linejoin="null" stroke-dasharray="null" stroke-width="5" stroke="#000000" fill="none"/>
    <path d="M 586.04,443.42 C 585.61 443.65, 585.61 443.86, 585.14 444.65 C 584.67 445.44, 584.47 445.95, 583.70 447.37 C 582.94 448.79, 582.47 449.82, 581.31 451.75 C 580.16 453.68, 579.46 454.88, 577.93 457.03 C 576.41 459.18, 575.33 460.37, 573.68 462.51 C 572.02 464.65, 570.92 465.94, 569.64 467.75 C 568.36 469.55, 567.99 470.27, 567.27 471.53 C 566.55 472.80, 566.11 473.42, 566.03 474.07 C 565.94 474.71, 566.21 474.94, 566.83 474.75 C 567.46 474.56, 568.03 474.04, 569.15 473.10 C 570.26 472.16, 570.87 471.64, 572.41 470.04 C 573.95 468.43, 575.06 467.17, 576.84 465.06 C 578.62 462.95, 579.65 461.69, 581.29 459.48 C 582.94 457.27, 583.82 456.10, 585.08 454.01 C 586.34 451.92, 586.99 450.78, 587.58 449.03 C 588.17 447.29, 588.09 446.38, 588.03 445.27 C 587.97 444.17, 587.69 443.86, 587.30 443.49 C 586.90 443.12, 586.47 443.19, 586.04 443.42" stroke-linecap="null" stroke-linejoin="null" stroke-dasharray="null" stroke-width="5" stroke="#000000" fill="none"/>
    <path d="M 691.32,350.16 C 690.80 350.49, 690.62 351.02, 690.16 352.11 C 689.69 353.19, 689.48 353.74, 688.99 355.57 C 688.51 357.41, 688.17 358.76, 687.74 361.28 C 687.32 363.80, 687.25 365.21, 686.88 368.17 C 686.51 371.13, 686.35 372.80, 685.89 376.08 C 685.43 379.36, 685.05 381.11, 684.59 384.56 C 684.14 388.01, 684.05 389.90, 683.62 393.33 C 683.19 396.76, 682.82 398.45, 682.43 401.70 C 682.04 404.94, 681.87 406.59, 681.65 409.55 C 681.44 412.52, 681.45 413.96, 681.36 416.52 C 681.28 419.08, 681.18 420.29, 681.23 422.35 C 681.28 424.41, 681.37 425.42, 681.59 426.83 C 681.81 428.24, 682.02 428.63, 682.32 429.42 C 682.62 430.21, 682.76 430.53, 683.09 430.77 C 683.42 431.01, 683.74 430.95, 683.98 430.63 C 684.22 430.31, 684.20 429.97, 684.31 429.18 C 684.41 428.38, 684.47 428.01, 684.51 426.64 C 684.56 425.28, 684.47 424.35, 684.51 422.35 C 684.56 420.35, 684.66 419.15, 684.74 416.63 C 684.83 414.11, 684.79 412.67, 684.94 409.75 C 685.09 406.84, 685.15 405.25, 685.48 402.04 C 685.81 398.83, 686.16 397.12, 686.58 393.71 C 687.01 390.29, 687.12 388.40, 687.62 384.98 C 688.13 381.56, 688.52 379.85, 689.11 376.60 C 689.71 373.36, 690.05 371.68, 690.61 368.77 C 691.18 365.85, 691.47 364.52, 691.94 362.04 C 692.42 359.55, 692.76 358.22, 692.99 356.34 C 693.22 354.46, 693.15 353.82, 693.09 352.64 C 693.04 351.46, 693.08 350.92, 692.73 350.42 C 692.37 349.93, 691.83 349.82, 691.32 350.16" stroke-linecap="null" stroke-linejoin="null" stroke-dasharray="null" stroke-width="5" stroke="#000000" fill="none"/>
    <path d="M 796.77,407.92 C 797.38 407.65, 797.88 407.08, 798.32 406.09 C 798.76 405.09, 798.99 404.30, 798.97 402.96 C 798.95 401.62, 798.76 400.66, 798.22 399.41 C 797.68 398.15, 797.25 397.61, 796.29 396.70 C 795.33 395.78, 794.81 395.31, 793.43 394.84 C 792.04 394.37, 791.18 394.04, 789.35 394.35 C 787.51 394.66, 786.29 395.16, 784.24 396.38 C 782.20 397.61, 781.12 398.48, 779.11 400.48 C 777.09 402.48, 776.00 403.85, 774.16 406.39 C 772.33 408.93, 771.22 410.47, 769.93 413.19 C 768.63 415.92, 768.17 417.47, 767.69 420.02 C 767.21 422.56, 767.17 423.82, 767.51 425.92 C 767.85 428.01, 768.29 428.97, 769.38 430.47 C 770.47 431.97, 771.27 432.63, 772.96 433.42 C 774.64 434.21, 775.69 434.46, 777.80 434.44 C 779.92 434.43, 781.20 434.22, 783.53 433.36 C 785.86 432.51, 787.17 431.80, 789.46 430.16 C 791.75 428.51, 792.92 427.37, 794.98 425.15 C 797.05 422.94, 797.99 421.56, 799.80 419.09 C 801.60 416.62, 802.63 415.25, 804.00 412.80 C 805.37 410.35, 806.14 408.76, 806.65 406.83 C 807.15 404.90, 806.88 403.82, 806.51 403.15 C 806.14 402.48, 805.55 402.62, 804.77 403.48 C 804.00 404.33, 803.38 405.43, 802.64 407.42 C 801.89 409.41, 801.39 410.90, 801.06 413.44 C 800.72 415.98, 800.78 417.69, 800.98 420.11 C 801.19 422.53, 801.50 423.60, 802.09 425.55 C 802.67 427.49, 802.84 428.42, 803.89 429.84 C 804.95 431.27, 805.79 431.94, 807.35 432.67 C 808.92 433.40, 809.86 433.60, 811.72 433.51 C 813.57 433.41, 814.67 433.13, 816.64 432.20 C 818.62 431.26, 819.71 430.49, 821.59 428.83 C 823.46 427.18, 824.34 426.05, 826.02 423.93 C 827.71 421.82, 828.58 420.51, 830.03 418.25 C 831.48 416.00, 832.27 414.63, 833.27 412.65 C 834.26 410.67, 834.74 409.56, 835.02 408.36 C 835.29 407.16, 835.10 406.65, 834.66 406.65 C 834.22 406.65, 833.61 407.14, 832.81 408.36 C 832.02 409.59, 831.42 410.78, 830.69 412.80 C 829.96 414.82, 829.61 416.32, 829.18 418.46 C 828.75 420.60, 828.47 421.82, 828.53 423.48 C 828.59 425.14, 828.82 425.97, 829.49 426.78 C 830.16 427.59, 830.81 427.78, 831.86 427.51 C 832.92 427.25, 833.49 426.70, 834.77 425.45 C 836.04 424.21, 836.80 423.24, 838.24 421.29 C 839.67 419.34, 840.50 417.92, 841.95 415.72 C 843.41 413.52, 844.11 412.17, 845.51 410.30 C 846.92 408.44, 847.72 407.64, 848.97 406.40 C 850.23 405.15, 850.87 404.65, 851.80 404.06 C 852.72 403.48, 853.06 403.37, 853.59 403.48 C 854.11 403.59, 854.22 403.85, 854.42 404.62 C 854.61 405.38, 854.55 405.94, 854.55 407.28 C 854.56 408.63, 854.51 409.58, 854.43 411.33 C 854.34 413.09, 854.28 414.20, 854.13 416.08 C 853.99 417.95, 853.63 419.10, 853.69 420.70 C 853.75 422.30, 853.83 423.20, 854.45 424.08 C 855.07 424.96, 855.71 425.25, 856.79 425.10 C 857.86 424.96, 858.40 424.54, 859.82 423.35 C 861.23 422.16, 862.09 421.07, 863.85 419.15 C 865.61 417.24, 866.68 415.86, 868.62 413.78 C 870.56 411.70, 871.75 410.47, 873.56 408.76 C 875.38 407.04, 876.23 406.27, 877.69 405.21 C 879.15 404.15, 879.91 403.77, 880.86 403.45 C 881.81 403.12, 881.99 403.10, 882.43 403.59 C 882.86 404.08, 882.84 404.65, 883.04 405.88 C 883.25 407.12, 883.37 407.99, 883.45 409.76 C 883.53 411.52, 883.38 412.68, 883.44 414.72 C 883.50 416.76, 883.58 417.96, 883.75 419.96 C 883.93 421.96, 883.94 422.95, 884.31 424.72 C 884.68 426.49, 884.82 427.35, 885.62 428.80 C 886.41 430.25, 887.11 431.10, 888.29 431.99 C 889.48 432.87, 890.71 433.24, 891.54 433.22 C 892.36 433.21, 892.64 432.61, 892.41 431.90 C 892.19 431.18, 891.21 430.57, 890.41 429.66 C 889.61 428.74, 888.97 428.40, 888.40 427.31 C 887.83 426.21, 887.74 425.68, 887.57 424.18 C 887.39 422.67, 887.52 421.69, 887.52 419.79 C 887.52 417.89, 887.54 416.75, 887.55 414.67 C 887.56 412.59, 887.83 411.36, 887.56 409.38 C 887.30 407.40, 886.98 406.30, 886.23 404.78 C 885.48 403.26, 884.99 402.55, 883.83 401.79 C 882.66 401.03, 881.98 400.85, 880.41 400.98 C 878.85 401.12, 877.87 401.48, 876.00 402.46 C 874.14 403.45, 873.16 404.24, 871.08 405.90 C 869.00 407.56, 867.76 408.75, 865.60 410.76 C 863.44 412.77, 862.04 413.95, 860.29 415.97 C 858.54 417.98, 857.71 419.31, 856.83 420.84 C 855.95 422.37, 856.00 423.05, 855.89 423.62 C 855.78 424.18, 855.98 424.16, 856.29 423.66 C 856.60 423.17, 857.03 422.56, 857.44 421.13 C 857.85 419.70, 858.11 418.44, 858.35 416.50 C 858.58 414.56, 858.62 413.36, 858.62 411.43 C 858.62 409.50, 858.67 408.48, 858.33 406.85 C 857.99 405.21, 857.75 404.36, 856.91 403.24 C 856.08 402.13, 855.40 401.61, 854.14 401.27 C 852.89 400.93, 852.11 401.04, 850.64 401.57 C 849.17 402.09, 848.40 402.64, 846.79 403.91 C 845.18 405.17, 844.26 406.02, 842.59 407.88 C 840.91 409.74, 840.06 411.08, 838.43 413.21 C 836.80 415.35, 835.80 416.59, 834.43 418.56 C 833.06 420.54, 832.33 421.61, 831.58 423.10 C 830.83 424.58, 830.82 425.37, 830.70 426.00 C 830.59 426.63, 830.76 426.65, 831.01 426.25 C 831.26 425.85, 831.43 425.32, 831.95 424.00 C 832.46 422.68, 832.90 421.63, 833.59 419.67 C 834.29 417.71, 834.92 416.28, 835.41 414.19 C 835.90 412.10, 836.09 410.77, 836.04 409.23 C 835.99 407.68, 835.78 406.89, 835.16 406.44 C 834.53 406.00, 833.94 406.15, 832.90 407.01 C 831.86 407.86, 831.20 408.89, 829.97 410.71 C 828.73 412.53, 828.13 413.95, 826.72 416.11 C 825.32 418.26, 824.49 419.52, 822.94 421.49 C 821.39 423.45, 820.57 424.45, 818.97 425.94 C 817.37 427.42, 816.46 428.05, 814.95 428.91 C 813.44 429.77, 812.68 430.04, 811.40 430.25 C 810.13 430.45, 809.59 430.35, 808.57 429.94 C 807.54 429.52, 806.94 429.20, 806.28 428.17 C 805.61 427.14, 805.51 426.42, 805.23 424.79 C 804.95 423.16, 804.76 422.16, 804.88 420.03 C 805.00 417.91, 805.42 416.49, 805.84 414.18 C 806.25 411.86, 806.75 410.48, 806.95 408.44 C 807.16 406.41, 807.17 405.12, 806.88 404.00 C 806.60 402.88, 806.20 402.55, 805.53 402.86 C 804.86 403.16, 804.50 403.92, 803.53 405.53 C 802.56 407.14, 802.00 408.62, 800.67 410.90 C 799.34 413.19, 798.55 414.64, 796.88 416.98 C 795.20 419.32, 794.23 420.59, 792.29 422.59 C 790.35 424.60, 789.22 425.55, 787.19 427.00 C 785.17 428.45, 784.07 429.04, 782.16 429.84 C 780.25 430.63, 779.25 430.82, 777.65 430.98 C 776.04 431.13, 775.34 431.06, 774.14 430.63 C 772.95 430.20, 772.41 429.83, 771.67 428.81 C 770.94 427.80, 770.60 427.15, 770.46 425.54 C 770.33 423.93, 770.44 422.90, 771.00 420.76 C 771.56 418.62, 772.03 417.26, 773.27 414.84 C 774.51 412.42, 775.47 410.93, 777.20 408.64 C 778.94 406.35, 780.13 405.17, 781.97 403.40 C 783.81 401.62, 784.75 400.86, 786.38 399.75 C 788.02 398.64, 788.93 398.24, 790.15 397.84 C 791.38 397.45, 791.75 397.55, 792.51 397.76 C 793.28 397.96, 793.54 398.28, 793.97 398.85 C 794.39 399.43, 794.46 399.78, 794.64 400.63 C 794.82 401.48, 794.81 402.15, 794.87 403.11 C 794.94 404.07, 794.89 404.57, 794.97 405.43 C 795.04 406.30, 794.90 406.93, 795.26 407.43 C 795.62 407.93, 796.16 408.19, 796.77 407.92" stroke-linecap="null" stroke-linejoin="null" stroke-dasharray="null" stroke-width="5" stroke="#000000" fill="none"/>
    <path d="M 973.98,365.07 C 973.61 365.71, 973.73 366.40, 973.49 368.07 C 973.26 369.74, 973.08 370.78, 972.81 373.41 C 972.55 376.04, 972.59 377.83, 972.17 381.21 C 971.74 384.59, 971.37 386.65, 970.69 390.30 C 970.01 393.96, 969.47 395.96, 968.77 399.48 C 968.07 403.00, 967.64 404.81, 967.19 407.91 C 966.73 411.00, 966.47 412.54, 966.48 414.94 C 966.49 417.35, 966.70 418.37, 967.24 419.93 C 967.78 421.49, 968.11 422.04, 969.20 422.75 C 970.28 423.46, 971.16 423.74, 972.66 423.48 C 974.16 423.21, 974.99 422.71, 976.69 421.42 C 978.40 420.14, 979.35 419.10, 981.18 417.04 C 983.01 414.99, 983.99 413.53, 985.85 411.14 C 987.70 408.75, 988.78 407.32, 990.44 405.09 C 992.10 402.86, 993.07 401.57, 994.14 399.99 C 995.22 398.41, 995.50 397.65, 995.83 397.19 C 996.16 396.74, 995.94 396.88, 995.79 397.72 C 995.65 398.56, 995.31 399.50, 995.10 401.41 C 994.90 403.33, 994.71 404.85, 994.76 407.31 C 994.82 409.77, 994.99 411.25, 995.38 413.72 C 995.77 416.20, 995.99 417.48, 996.71 419.68 C 997.43 421.89, 997.79 422.98, 998.98 424.75 C 1000.16 426.52, 1000.95 427.38, 1002.62 428.55 C 1004.30 429.71, 1005.35 430.19, 1007.37 430.57 C 1009.39 430.96, 1010.51 430.95, 1012.73 430.47 C 1014.95 429.99, 1016.22 429.55, 1018.48 428.17 C 1020.75 426.79, 1021.99 425.78, 1024.07 423.57 C 1026.15 421.35, 1027.14 419.92, 1028.89 417.10 C 1030.64 414.28, 1031.49 412.68, 1032.82 409.45 C 1034.15 406.23, 1034.68 404.38, 1035.54 400.97 C 1036.40 397.55, 1036.80 395.77, 1037.10 392.40 C 1037.40 389.04, 1037.28 387.20, 1037.02 384.14 C 1036.77 381.07, 1036.49 379.60, 1035.82 377.08 C 1035.15 374.56, 1034.58 373.42, 1033.68 371.55 C 1032.79 369.68, 1032.25 368.85, 1031.36 367.73 C 1030.46 366.60, 1029.88 366.38, 1029.21 365.93 C 1028.55 365.48, 1028.38 365.47, 1028.03 365.48 C 1027.68 365.49, 1027.53 365.63, 1027.47 365.97 C 1027.41 366.31, 1027.45 366.50, 1027.74 367.18 C 1028.02 367.85, 1028.29 368.22, 1028.90 369.36 C 1029.51 370.50, 1030.04 371.17, 1030.78 372.88 C 1031.52 374.59, 1032.00 375.61, 1032.59 377.92 C 1033.19 380.23, 1033.45 381.59, 1033.74 384.44 C 1034.03 387.28, 1034.26 389.00, 1034.03 392.16 C 1033.81 395.31, 1033.43 397.01, 1032.61 400.23 C 1031.80 403.45, 1031.27 405.23, 1029.96 408.24 C 1028.65 411.26, 1027.80 412.74, 1026.08 415.28 C 1024.36 417.83, 1023.28 419.02, 1021.36 420.97 C 1019.45 422.91, 1018.39 423.79, 1016.50 425.02 C 1014.61 426.25, 1013.64 426.67, 1011.92 427.14 C 1010.21 427.61, 1009.44 427.63, 1007.94 427.39 C 1006.45 427.14, 1005.71 426.79, 1004.46 425.91 C 1003.21 425.03, 1002.58 424.44, 1001.70 423.00 C 1000.81 421.56, 1000.52 420.66, 1000.04 418.72 C 999.56 416.78, 999.43 415.58, 999.30 413.29 C 999.16 410.99, 999.36 409.64, 999.35 407.25 C 999.33 404.85, 999.53 403.35, 999.22 401.31 C 998.92 399.27, 998.62 398.17, 997.82 397.05 C 997.03 395.93, 996.49 395.56, 995.26 395.70 C 994.03 395.84, 993.26 396.37, 991.67 397.76 C 990.07 399.14, 989.07 400.44, 987.29 402.63 C 985.50 404.81, 984.61 406.37, 982.74 408.68 C 980.87 410.98, 979.65 412.19, 977.92 414.16 C 976.19 416.13, 975.31 417.17, 974.08 418.53 C 972.85 419.88, 972.53 420.42, 971.78 420.94 C 971.02 421.46, 970.73 421.45, 970.31 421.13 C 969.89 420.81, 969.82 420.56, 969.69 419.34 C 969.56 418.12, 969.53 417.23, 969.67 415.03 C 969.80 412.83, 969.97 411.35, 970.37 408.35 C 970.77 405.36, 971.01 403.53, 971.67 400.04 C 972.33 396.55, 972.89 394.57, 973.68 390.91 C 974.48 387.25, 975.00 385.19, 975.65 381.76 C 976.30 378.33, 976.75 376.51, 976.94 373.76 C 977.13 371.01, 976.91 369.77, 976.60 368.00 C 976.28 366.23, 975.89 365.49, 975.37 364.90 C 974.84 364.32, 974.36 364.44, 973.98 365.07" stroke-linecap="null" stroke-linejoin="null" stroke-dasharray="null" stroke-width="5" stroke="#000000" fill="none"/>
    <path d="M 1052.36,389.49 C 1051.78 389.67, 1051.35 389.99, 1050.64 390.99 C 1049.94 391.98, 1049.63 392.74, 1048.84 394.47 C 1048.04 396.20, 1047.42 397.43, 1046.68 399.65 C 1045.93 401.87, 1045.55 403.22, 1045.11 405.56 C 1044.67 407.91, 1044.51 409.20, 1044.49 411.39 C 1044.47 413.58, 1044.51 414.68, 1045.01 416.52 C 1045.50 418.36, 1045.90 419.22, 1046.98 420.59 C 1048.06 421.96, 1048.77 422.62, 1050.40 423.38 C 1052.02 424.14, 1053.10 424.42, 1055.09 424.40 C 1057.08 424.39, 1058.18 424.12, 1060.35 423.31 C 1062.52 422.51, 1063.70 421.87, 1065.96 420.36 C 1068.23 418.85, 1069.47 417.76, 1071.69 415.76 C 1073.91 413.75, 1075.18 412.48, 1077.07 410.32 C 1078.96 408.16, 1080.07 406.71, 1081.13 404.97 C 1082.18 403.22, 1082.32 402.22, 1082.36 401.59 C 1082.41 400.97, 1081.93 401.12, 1081.35 401.85 C 1080.78 402.58, 1080.10 403.53, 1079.50 405.25 C 1078.90 406.97, 1078.22 408.45, 1078.34 410.44 C 1078.45 412.42, 1079.38 414.24, 1080.09 415.16 C 1080.79 416.09, 1081.29 415.92, 1081.88 415.05 C 1082.47 414.17, 1082.64 412.57, 1083.02 410.78 C 1083.41 408.98, 1083.74 407.85, 1083.82 406.09 C 1083.89 404.33, 1083.84 403.10, 1083.40 401.99 C 1082.95 400.88, 1082.59 400.40, 1081.59 400.55 C 1080.59 400.71, 1079.90 401.34, 1078.39 402.75 C 1076.88 404.16, 1075.92 405.58, 1074.05 407.61 C 1072.19 409.63, 1071.12 410.97, 1069.06 412.87 C 1067.00 414.77, 1065.77 415.71, 1063.76 417.11 C 1061.74 418.51, 1060.73 419.12, 1058.97 419.89 C 1057.22 420.66, 1056.42 420.84, 1054.96 420.96 C 1053.50 421.08, 1052.79 420.92, 1051.66 420.48 C 1050.53 420.05, 1050.04 419.70, 1049.32 418.77 C 1048.61 417.84, 1048.35 417.26, 1048.09 415.81 C 1047.83 414.37, 1047.86 413.43, 1048.03 411.56 C 1048.20 409.68, 1048.39 408.52, 1048.95 406.44 C 1049.52 404.35, 1050.07 403.23, 1050.87 401.14 C 1051.66 399.06, 1052.39 397.81, 1052.92 396.00 C 1053.46 394.19, 1053.41 393.27, 1053.54 392.09 C 1053.66 390.90, 1053.79 390.60, 1053.55 390.08 C 1053.32 389.56, 1052.94 389.31, 1052.36 389.49" stroke-linecap="null" stroke-linejoin="null" stroke-dasharray="null" stroke-width="5" stroke="#000000" fill="none"/>
    <path d="M 1182.39,367.89 C 1181.88 368.24, 1181.70 368.52, 1181.03 369.92 C 1180.36 371.33, 1179.80 372.24, 1179.05 374.90 C 1178.30 377.56, 1178.12 379.52, 1177.28 383.24 C 1176.44 386.95, 1175.83 389.29, 1174.86 393.47 C 1173.88 397.65, 1173.28 400.14, 1172.41 404.15 C 1171.54 408.15, 1171.06 410.12, 1170.53 413.51 C 1170.00 416.90, 1169.72 418.40, 1169.78 421.12 C 1169.83 423.83, 1170.13 425.22, 1170.82 427.09 C 1171.51 428.96, 1172.10 429.72, 1173.23 430.49 C 1174.36 431.26, 1175.13 431.25, 1176.47 430.94 C 1177.80 430.62, 1178.60 430.19, 1179.91 428.92 C 1181.22 427.64, 1181.85 426.59, 1183.04 424.55 C 1184.23 422.52, 1184.71 421.09, 1185.85 418.76 C 1186.99 416.42, 1187.60 415.00, 1188.73 412.87 C 1189.87 410.74, 1190.49 409.68, 1191.51 408.11 C 1192.53 406.54, 1193.03 405.88, 1193.84 405.03 C 1194.66 404.18, 1195.05 403.87, 1195.59 403.86 C 1196.12 403.85, 1196.18 404.09, 1196.50 404.98 C 1196.81 405.86, 1196.87 406.62, 1197.18 408.29 C 1197.48 409.97, 1197.66 411.15, 1198.02 413.35 C 1198.38 415.56, 1198.49 417.01, 1199.00 419.32 C 1199.51 421.63, 1199.85 422.91, 1200.57 424.92 C 1201.30 426.93, 1201.69 427.85, 1202.63 429.38 C 1203.58 430.91, 1204.00 431.66, 1205.30 432.56 C 1206.59 433.46, 1207.43 433.85, 1209.10 433.89 C 1210.78 433.93, 1211.77 433.73, 1213.66 432.75 C 1215.55 431.78, 1216.61 431.11, 1218.55 429.02 C 1220.48 426.93, 1221.46 425.35, 1223.34 422.30 C 1225.22 419.25, 1226.21 417.35, 1227.97 413.77 C 1229.73 410.18, 1230.62 408.12, 1232.14 404.35 C 1233.66 400.59, 1234.46 398.63, 1235.58 394.95 C 1236.70 391.28, 1237.17 389.32, 1237.74 385.98 C 1238.31 382.64, 1238.47 380.98, 1238.44 378.23 C 1238.40 375.49, 1238.04 374.34, 1237.55 372.24 C 1237.06 370.14, 1236.66 369.11, 1235.97 367.73 C 1235.29 366.35, 1234.76 365.99, 1234.12 365.32 C 1233.48 364.66, 1233.18 364.50, 1232.77 364.41 C 1232.35 364.33, 1232.12 364.52, 1232.04 364.92 C 1231.95 365.31, 1232.09 365.62, 1232.34 366.41 C 1232.59 367.20, 1232.82 367.57, 1233.27 368.87 C 1233.71 370.17, 1234.17 371.03, 1234.56 372.91 C 1234.96 374.79, 1235.19 375.77, 1235.25 378.29 C 1235.30 380.81, 1235.29 382.35, 1234.84 385.53 C 1234.39 388.70, 1234.03 390.62, 1233.00 394.18 C 1231.96 397.75, 1231.19 399.69, 1229.67 403.34 C 1228.16 407.00, 1227.23 409.03, 1225.41 412.45 C 1223.58 415.88, 1222.51 417.68, 1220.55 420.46 C 1218.59 423.23, 1217.36 424.45, 1215.63 426.32 C 1213.90 428.19, 1213.22 428.85, 1211.90 429.80 C 1210.57 430.74, 1210.01 430.93, 1209.02 431.05 C 1208.02 431.17, 1207.66 431.03, 1206.94 430.40 C 1206.21 429.77, 1205.98 429.20, 1205.39 427.89 C 1204.80 426.58, 1204.48 425.71, 1204.00 423.85 C 1203.52 421.98, 1203.32 420.82, 1202.98 418.57 C 1202.64 416.33, 1202.69 414.89, 1202.29 412.62 C 1201.89 410.35, 1201.67 409.08, 1200.98 407.23 C 1200.29 405.37, 1199.91 404.46, 1198.85 403.36 C 1197.79 402.25, 1197.05 401.79, 1195.70 401.68 C 1194.35 401.58, 1193.48 401.94, 1192.10 402.82 C 1190.72 403.70, 1190.13 404.46, 1188.78 406.08 C 1187.43 407.69, 1186.70 408.76, 1185.34 410.91 C 1183.99 413.06, 1183.24 414.50, 1182.03 416.82 C 1180.81 419.14, 1180.24 420.53, 1179.26 422.50 C 1178.28 424.47, 1177.86 425.41, 1177.13 426.68 C 1176.40 427.94, 1176.12 428.38, 1175.60 428.83 C 1175.08 429.28, 1174.93 429.44, 1174.52 428.93 C 1174.11 428.42, 1173.86 427.86, 1173.54 426.29 C 1173.21 424.71, 1172.94 423.53, 1172.90 421.06 C 1172.86 418.58, 1172.91 417.18, 1173.33 413.91 C 1173.75 410.64, 1174.16 408.66, 1175.01 404.70 C 1175.85 400.75, 1176.46 398.27, 1177.55 394.14 C 1178.65 390.02, 1179.36 387.72, 1180.47 384.09 C 1181.59 380.46, 1182.47 378.69, 1183.15 376.00 C 1183.83 373.31, 1183.79 372.21, 1183.88 370.65 C 1183.97 369.09, 1183.89 368.73, 1183.59 368.18 C 1183.30 367.63, 1182.90 367.54, 1182.39 367.89" stroke-linecap="null" stroke-linejoin="null" stroke-dasharray="null" stroke-width="5" stroke="#000000" fill="none"/>
    <path d="M 1244.05,424.41 C 1244.73 424.65, 1245.43 424.53, 1246.91 424.23 C 1248.38 423.93, 1249.36 423.79, 1251.43 422.91 C 1253.49 422.02, 1254.93 421.21, 1257.23 419.79 C 1259.53 418.37, 1260.81 417.53, 1262.95 415.81 C 1265.09 414.09, 1266.22 413.02, 1267.92 411.18 C 1269.62 409.35, 1270.50 408.39, 1271.46 406.65 C 1272.42 404.92, 1272.79 404.02, 1272.71 402.52 C 1272.63 401.03, 1272.24 400.16, 1271.06 399.17 C 1269.87 398.18, 1268.95 397.71, 1266.78 397.58 C 1264.60 397.46, 1262.90 397.68, 1260.19 398.54 C 1257.48 399.40, 1255.85 400.25, 1253.22 401.86 C 1250.60 403.47, 1249.12 404.58, 1247.06 406.59 C 1245.00 408.60, 1244.07 409.75, 1242.90 411.91 C 1241.74 414.07, 1241.33 415.28, 1241.23 417.40 C 1241.14 419.51, 1241.33 420.69, 1242.43 422.49 C 1243.53 424.29, 1244.59 425.14, 1246.72 426.40 C 1248.85 427.65, 1250.14 428.22, 1253.10 428.77 C 1256.05 429.32, 1258.00 429.27, 1261.50 429.14 C 1265.00 429.01, 1266.92 428.86, 1270.58 428.12 C 1274.25 427.38, 1276.15 426.73, 1279.81 425.45 C 1283.47 424.16, 1285.54 423.33, 1288.88 421.70 C 1292.22 420.08, 1293.89 419.09, 1296.50 417.32 C 1299.11 415.54, 1300.39 414.49, 1301.93 412.83 C 1303.46 411.17, 1303.96 410.15, 1304.17 409.03 C 1304.38 407.92, 1303.91 407.36, 1302.98 407.26 C 1302.05 407.17, 1301.00 407.45, 1299.54 408.55 C 1298.08 409.64, 1296.97 410.80, 1295.68 412.73 C 1294.39 414.65, 1293.90 416.06, 1293.11 418.19 C 1292.31 420.32, 1292.00 421.44, 1291.71 423.39 C 1291.41 425.34, 1291.43 426.34, 1291.61 427.94 C 1291.80 429.54, 1292.14 430.29, 1292.65 431.39 C 1293.15 432.49, 1293.59 432.81, 1294.13 433.42 C 1294.67 434.03, 1294.87 434.24, 1295.37 434.45 C 1295.86 434.65, 1296.25 434.56, 1296.60 434.46 C 1296.95 434.36, 1297.11 434.15, 1297.11 433.93 C 1297.11 433.72, 1296.69 433.51, 1296.59 433.38 C 1296.50 433.26, 1296.58 433.41, 1296.64 433.29 C 1296.70 433.18, 1296.95 433.13, 1296.89 432.82 C 1296.83 432.51, 1296.66 432.27, 1296.35 431.75 C 1296.04 431.23, 1295.67 431.05, 1295.35 430.23 C 1295.03 429.42, 1294.82 428.90, 1294.76 427.67 C 1294.70 426.44, 1294.66 425.63, 1295.07 424.06 C 1295.48 422.50, 1295.87 421.59, 1296.81 419.86 C 1297.76 418.14, 1298.66 417.18, 1299.79 415.44 C 1300.93 413.69, 1301.74 412.56, 1302.49 411.14 C 1303.24 409.72, 1303.50 408.94, 1303.55 408.34 C 1303.59 407.73, 1303.46 407.67, 1302.69 408.10 C 1301.93 408.53, 1301.33 409.18, 1299.72 410.50 C 1298.11 411.81, 1297.08 412.94, 1294.66 414.66 C 1292.23 416.39, 1290.75 417.50, 1287.59 419.13 C 1284.44 420.76, 1282.40 421.59, 1278.89 422.81 C 1275.38 424.03, 1273.53 424.62, 1270.04 425.22 C 1266.55 425.83, 1264.71 425.88, 1261.46 425.84 C 1258.21 425.79, 1256.42 425.51, 1253.80 425.01 C 1251.17 424.52, 1250.12 424.19, 1248.33 423.36 C 1246.55 422.54, 1245.72 422.03, 1244.87 420.88 C 1244.02 419.72, 1243.91 419.06, 1244.07 417.60 C 1244.24 416.14, 1244.60 415.23, 1245.70 413.58 C 1246.80 411.92, 1247.68 410.99, 1249.59 409.35 C 1251.50 407.71, 1252.88 406.70, 1255.27 405.36 C 1257.67 404.03, 1259.24 403.52, 1261.57 402.70 C 1263.91 401.87, 1265.32 401.55, 1266.96 401.23 C 1268.60 400.92, 1269.09 400.89, 1269.79 401.12 C 1270.48 401.36, 1270.61 401.65, 1270.41 402.41 C 1270.22 403.16, 1269.83 403.65, 1268.81 404.89 C 1267.79 406.12, 1266.96 407.03, 1265.30 408.59 C 1263.65 410.14, 1262.60 411.17, 1260.54 412.67 C 1258.47 414.17, 1257.19 414.79, 1254.99 416.08 C 1252.80 417.38, 1251.42 418.09, 1249.57 419.14 C 1247.71 420.19, 1246.94 420.54, 1245.73 421.32 C 1244.52 422.10, 1243.87 422.44, 1243.54 423.06 C 1243.20 423.68, 1243.38 424.18, 1244.05 424.41" stroke-linecap="null" stroke-linejoin="null" stroke-dasharray="null" stroke-width="5" stroke="#000000" fill="none"/>
    <path d="M 1300.66,386.68 C 1301.27 386.62, 1301.89 386.16, 1302.07 385.62 C 1302.25 385.08, 1302.00 384.39, 1301.58 383.98 C 1301.15 383.56, 1300.51 383.46, 1299.95 383.55 C 1299.40 383.64, 1298.99 383.94, 1298.80 384.41 C 1298.61 384.88, 1298.64 385.44, 1299.01 385.90 C 1299.38 386.35, 1300.05 386.73, 1300.66 386.68" stroke-linecap="null" stroke-linejoin="null" stroke-dasharray="null" stroke-width="5" stroke="#000000" fill="none"/>
    <path d="M 1335.72,434.86 C 1336.04 435.34, 1336.69 435.66, 1337.09 435.51 C 1337.50 435.37, 1337.82 434.73, 1337.76 434.15 C 1337.70 433.57, 1337.15 432.99, 1336.78 432.61 C 1336.40 432.23, 1336.13 432.14, 1335.88 432.24 C 1335.62 432.35, 1335.52 432.61, 1335.49 433.13 C 1335.46 433.65, 1335.40 434.39, 1335.72 434.86" stroke-linecap="null" stroke-linejoin="null" stroke-dasharray="null" stroke-width="5" stroke="#000000" fill="none"/>
  </g>
</svg>
